<?xml version="1.0" encoding="UTF-8"?>
<svg xmlns="http://www.w3.org/2000/svg" viewBox="0 0 357.62 403.96">
  <defs>
    <style>
      .cls-1 {
        fill: #2a2a2a;
      }

      .cls-1, .cls-2, .cls-3, .cls-4, .cls-5, .cls-6, .cls-7, .cls-8, .cls-9, .cls-10, .cls-11, .cls-12, .cls-13, .cls-14, .cls-15, .cls-16, .cls-17, .cls-18, .cls-19, .cls-20, .cls-21, .cls-22, .cls-23, .cls-24, .cls-25, .cls-26, .cls-27, .cls-28, .cls-29, .cls-30, .cls-31, .cls-32, .cls-33, .cls-34, .cls-35, .cls-36, .cls-37, .cls-38, .cls-39, .cls-40, .cls-41, .cls-42, .cls-43, .cls-44, .cls-45, .cls-46, .cls-47, .cls-48, .cls-49, .cls-50, .cls-51, .cls-52, .cls-53, .cls-54, .cls-55, .cls-56, .cls-57, .cls-58, .cls-59, .cls-60, .cls-61, .cls-62, .cls-63, .cls-64, .cls-65, .cls-66, .cls-67, .cls-68, .cls-69, .cls-70, .cls-71, .cls-72, .cls-73, .cls-74, .cls-75, .cls-76, .cls-77, .cls-78, .cls-79, .cls-80, .cls-81, .cls-82, .cls-83, .cls-84, .cls-85, .cls-86, .cls-87, .cls-88, .cls-89, .cls-90, .cls-91, .cls-92, .cls-93, .cls-94, .cls-95, .cls-96, .cls-97, .cls-98, .cls-99, .cls-100, .cls-101, .cls-102, .cls-103, .cls-104, .cls-105, .cls-106, .cls-107, .cls-108, .cls-109, .cls-110, .cls-111, .cls-112, .cls-113, .cls-114, .cls-115, .cls-116, .cls-117, .cls-118, .cls-119, .cls-120, .cls-121, .cls-122, .cls-123, .cls-124, .cls-125, .cls-126, .cls-127, .cls-128, .cls-129, .cls-130, .cls-131, .cls-132, .cls-133, .cls-134, .cls-135, .cls-136, .cls-137, .cls-138 {
        stroke-width: 0px;
      }

      .cls-2 {
        fill: #5d5d5d;
      }

      .cls-3 {
        fill: #6a6a6a;
      }

      .cls-4 {
        fill: #171717;
      }

      .cls-5 {
        fill: #f2f2f2;
      }

      .cls-6 {
        fill: #2e2e2e;
      }

      .cls-7 {
        fill: #737373;
      }

      .cls-8 {
        fill: #cecece;
      }

      .cls-9 {
        fill: #606060;
      }

      .cls-10 {
        fill: #707070;
      }

      .cls-11 {
        fill: #575757;
      }

      .cls-12 {
        fill: #000;
      }

      .cls-13 {
        fill: #999;
      }

      .cls-14 {
        fill: #3e3e3e;
      }

      .cls-15 {
        fill: #8e8e8e;
      }

      .cls-16 {
        fill: #656565;
      }

      .cls-17 {
        fill: #242424;
      }

      .cls-18 {
        fill: #cbcbcb;
      }

      .cls-19 {
        fill: #6e6e6e;
      }

      .cls-20 {
        fill: #333;
      }

      .cls-21 {
        fill: #f6f6f6;
      }

      .cls-22 {
        fill: #787878;
      }

      .cls-23 {
        fill: #5b5b5b;
      }

      .cls-24 {
        fill: #d6d6d6;
      }

      .cls-25 {
        fill: #d3d3d3;
      }

      .cls-26 {
        fill: #3a3a3a;
      }

      .cls-27 {
        fill: #2c2c2c;
      }

      .cls-28 {
        fill: #1a1a1a;
      }

      .cls-29 {
        fill: #b1b1b1;
      }

      .cls-30 {
        fill: #8a8a8a;
      }

      .cls-31 {
        fill: #717171;
      }

      .cls-32 {
        fill: #191919;
      }

      .cls-33 {
        fill: #444;
      }

      .cls-34 {
        fill: #8b8b8b;
      }

      .cls-35 {
        fill: #1c1c1c;
      }

      .cls-36 {
        fill: #1f1f1f;
      }

      .cls-37 {
        fill: #1d1d1d;
      }

      .cls-38 {
        fill: #e5e5e5;
      }

      .cls-39 {
        fill: #9b9b9b;
      }

      .cls-40 {
        fill: #b5b5b5;
      }

      .cls-41 {
        fill: #fcfcfc;
      }

      .cls-42 {
        fill: #424242;
      }

      .cls-43 {
        fill: #9e9e9e;
      }

      .cls-44 {
        fill: #cacaca;
      }

      .cls-45 {
        fill: #e9e9e9;
      }

      .cls-46 {
        fill: #7e7e7e;
      }

      .cls-47 {
        fill: #cfcfcf;
      }

      .cls-48 {
        fill: #5e5e5e;
      }

      .cls-49 {
        fill: #2d2d2d;
      }

      .cls-50 {
        fill: #353535;
      }

      .cls-51 {
        fill: #434343;
      }

      .cls-52 {
        fill: #5f5f5f;
      }

      .cls-53 {
        fill: #4a4a4a;
      }

      .cls-54 {
        fill: #525252;
      }

      .cls-55 {
        fill: #3c3c3c;
      }

      .cls-56 {
        fill: #161616;
      }

      .cls-57 {
        fill: #939393;
      }

      .cls-58 {
        fill: #4b4b4b;
      }

      .cls-59 {
        fill: #181818;
      }

      .cls-60 {
        fill: #d4d4d4;
      }

      .cls-61 {
        fill: #111;
      }

      .cls-62 {
        fill: #7d7d7d;
      }

      .cls-63 {
        fill: #b6b6b6;
      }

      .cls-64 {
        fill: #d0d0d0;
      }

      .cls-65 {
        fill: #454545;
      }

      .cls-66 {
        fill: #d2d2d2;
      }

      .cls-67 {
        fill: #f5f5f5;
      }

      .cls-68 {
        fill: #d9d9d9;
      }

      .cls-69 {
        fill: #323232;
      }

      .cls-70 {
        fill: #bababa;
      }

      .cls-71 {
        fill: #686868;
      }

      .cls-72 {
        fill: #5c5c5c;
      }

      .cls-73 {
        fill: #bdbdbd;
      }

      .cls-74 {
        fill: #8d8d8d;
      }

      .cls-75 {
        fill: #aaa;
      }

      .cls-76 {
        fill: #414141;
      }

      .cls-77 {
        fill: #060606;
      }

      .cls-78 {
        fill: #f7f7f7;
      }

      .cls-79 {
        fill: #696969;
      }

      .cls-80 {
        fill: #767676;
      }

      .cls-81 {
        fill: #303030;
      }

      .cls-82 {
        fill: #9c9c9c;
      }

      .cls-83 {
        fill: #e3e3e3;
      }

      .cls-84 {
        fill: #7b7b7b;
      }

      .cls-85 {
        fill: #c4c4c4;
      }

      .cls-86 {
        fill: #555;
      }

      .cls-87 {
        fill: #a3a3a3;
      }

      .cls-88 {
        fill: #252525;
      }

      .cls-89 {
        fill: #888;
      }

      .cls-90 {
        fill: #1e1e1e;
      }

      .cls-91 {
        fill: #c8c8c8;
      }

      .cls-92 {
        fill: #959595;
      }

      .cls-93 {
        fill: #949494;
      }

      .cls-94 {
        fill: #484848;
      }

      .cls-95 {
        fill: #676767;
      }

      .cls-96 {
        fill: #545454;
      }

      .cls-97 {
        fill: #dadada;
      }

      .cls-98 {
        fill: #f9f9f9;
      }

      .cls-99 {
        fill: #3f3f3f;
      }

      .cls-100 {
        fill: #898989;
      }

      .cls-101 {
        fill: #ddd;
      }

      .cls-102 {
        fill: #a4a4a4;
      }

      .cls-103 {
        fill: #848484;
      }

      .cls-104 {
        fill: #2f2f2f;
      }

      .cls-105 {
        fill: #747474;
      }

      .cls-106 {
        fill: #979797;
      }

      .cls-107 {
        fill: #1b1b1b;
      }

      .cls-108 {
        fill: #fff;
      }

      .cls-109 {
        fill: #262626;
      }

      .cls-110 {
        fill: #fafafa;
      }

      .cls-111 {
        fill: #ccc;
      }

      .cls-112 {
        fill: #343434;
      }

      .cls-113 {
        fill: #212121;
      }

      .cls-114 {
        fill: #d8d8d8;
      }

      .cls-115 {
        fill: #292929;
      }

      .cls-116 {
        fill: #2b2b2b;
      }

      .cls-117 {
        fill: #8c8c8c;
      }

      .cls-118 {
        fill: #7f7f7f;
      }

      .cls-119 {
        fill: #6c6c6c;
      }

      .cls-120 {
        fill: #030303;
      }

      .cls-121 {
        fill: #fdfdfd;
      }

      .cls-122 {
        fill: #a2a2a2;
      }

      .cls-123 {
        fill: #868686;
      }

      .cls-124 {
        fill: #777;
      }

      .cls-125 {
        fill: #878787;
      }

      .cls-126 {
        fill: #363636;
      }

      .cls-127 {
        fill: #7a7a7a;
      }

      .cls-128 {
        fill: #3b3b3b;
      }

      .cls-129 {
        fill: #6d6d6d;
      }

      .cls-130 {
        fill: #f1f1f1;
      }

      .cls-131 {
        fill: #151515;
      }

      .cls-132 {
        fill: #4c4c4c;
      }

      .cls-133 {
        fill: #dcdcdc;
      }

      .cls-134 {
        fill: #474747;
      }

      .cls-135 {
        fill: #0b0b0b;
      }

      .cls-136 {
        fill: #c6c6c6;
      }

      .cls-137 {
        fill: #b0b0b0;
      }

      .cls-138 {
        fill: #efefef;
      }
    </style>
  </defs>
  <g id="Layer_2" data-name="Layer 2">
    <polygon class="cls-108" points="256.81 36.6 256.86 30.23 255.29 26.9 257.07 22.44 265.89 16.58 283.69 18.97 291.65 24.25 305.02 44.36 310.36 52.68 306.97 57.08 304.44 61.12 303.66 64.36 302.71 67.03 304.2 73.96 305.02 78.09 274.86 82.9 273.48 78.67 272.5 76.37 270.99 74.54 268.22 73.91 261.97 73.58 257.9 73.47 253.47 73.28 251.38 72.61 249.84 71.51 251.54 65.07 252.33 62.46 252.56 60.46 252.33 58.99 251.35 56.02 251.32 53.6 252.12 50.82 248.98 45.04 248.98 44.1 252.56 42.23 256.39 39.61 256.74 38.71 256.8 37.08 256.81 36.6"/>
  </g>
  <g id="Layer_1" data-name="Layer 1">
    <g>
      <path class="cls-12" d="M0,403.96c2.06-3.02,4.13-6.03,6.17-9.06,2.27-3.36,3.94-6.99,5.58-10.7.74-1.68,1.95-3.55,3.33-5.07.56-.26,1.12-.47,1.62.12.09.14.14.29.17.45,0,.1-.01.21-.04.32.11-.17.16-.36.26-.54,3.01-2.37,6.34-4.33,9.05-7.07,2.09-2.11,4.67-3.42,7.17-4.91,8.26-4.93,15.98-10.67,23.86-16.17,8.69-6.07,17.14-12.47,25.34-19.2,2.56-2.1,5.01-4.35,7.49-6.56,5.45-4.87,9.82-10.72,14.83-15.98,1.73-1.82,3.61-3.5,5.45-5.21.61-.7,1.32-1.31,1.95-1.99-.57.64-1.25,1.17-1.79,1.84-3.61,3.51-7.37,6.86-11.42,9.87-4.54,3.37-9.27,6.45-13.87,9.74-10,7.15-19.97,14.33-29.98,21.46-.09.07-.18.16-.28.21-.73.41-1.48,1.3-2.33.51-.93-.88.07-1.6.54-2.24,2.76-3.75,5.61-7.44,8.26-11.27,1.72-2.48,4.25-4.13,6.51-6.04,8.18-6.94,16.16-14.09,23.45-21.96,3.16-3.41,5.46-7.54,8.32-11.22,1.34-1.72,2.62-3.49,3.94-4.58-2.62,2.92-5.95,5.82-9.6,8.26-5.2,3.46-9.97,7.46-14.89,11.28-.7.54-1.49,1.76-2.53.87-.98-.84-.08-1.89.33-2.7,3.87-7.72,7.21-15.66,9.95-23.85,1.26-3.78,2.36-7.56,1.68-11.62.29-1.34,1.5-1.39,2.48-1.76,1.64-.31,3.23.23,4.86.26,4.25.09,8.46-.41,12.69-.79,2.26-.21,4.09,1.12,6.06,1.87.58.22.53.97.61,1.55.16,1.18-.31,2.27-.53,3.44.72,0,1.02-.49,1.37-.82,2.1-1.94,4.69-2.36,7.4-2.45.58-.02,1.17.01,1.74-.1.85-.17,1.56-.42,1.43-1.56-.13-1.22.55-1.57,1.72-1.55,1.75.03,3.47.34,5.21.45,1.47.09,2.88-.03,4.3-.35.38.07.66.32.96.53,1.11,1.44,2.47,0,3.68.31.85.58,1.79.64,2.77.49.28-.03.54-.13.82-.16.62-.1,1.12.29,1.69.38,1.94.33,3.81-.3,5.71-.43,1.02.17,1.93,1.01,3.06.53.37-.15.72-.39,1.15-.32.49.16.98.42,1.53.25.47-.11.92-.29,1.42-.23.99.23,1.98.27,2.97,0,.5-.05.91-.42,1.42-.44.85.2,1.69.39,2.52-.09.97-.61,2.21-.67,3.05-1.5-.32-.46-.8-.4-1.25-.43-.16,0-.31,0-.46-.02-.39-.03-.77-.16-1.16-.21-.4-.06-.8-.1-1.2-.13-.42-.02-.81-.19-1.22-.23-.9-.15-1.8-.06-2.7-.02-.54-.26-1.07-.56-1.67-.67-.88-.22-1.71.25-2.59.14-.54-.11-.93-.54-1.45-.68-.93-.51-1.87.02-2.8-.02-.74-.32-1.45-.79-2.32-.62-.25,0-.51-.02-.75-.09-.54-.32-1.12-.52-1.75-.54-1.22-.1-2.44-.02-3.65-.13-.73-.07-1.46-.24-1.56-1.1-.11-.95.68-1.11,1.37-1.26,3.59-.78,7.21-1.4,10.82-2.06,1.32-.24,2.69-.34,3.94-.78,4.8-1.66,9.44-.15,14.13.52,3.17.45,6.28,1.27,9.47,1.6.8.12,1.37.86,2.23.82.51.12.99-.11,1.49-.09.42.09.68.44,1.05.62.43.24.86.46,1.38.37,1.06-.53,1.73.59,2.66.62,1.32.28,2.62,0,3.93-.12.26.06.45.23.66.37.55.5,1.22.61,1.93.58.41.04.74.27,1.12.4,1.11.57,2.27.09,3.4.13.23.11.45.24.65.39.72,1.05,1.66.49,2.55.33.32.03.6.17.88.32.32.21.65.38,1.03.46.83.21,1.62.64,2.51.56,1.18-.2,2.41.43,3.6-.13-.23-.57-.7-.49-1.06-.62-.33-.1-.52-.37-.75-.59-.35-.31-.76-.5-1.19-.67-.13-.08-.24-.18-.34-.29-.19-.22-.37-.45-.62-.62-.51-.31-.83-.86-1.4-1.09-.57-.4-1.23,0-1.82-.24-.2-.13-.4-.28-.58-.44-.34-.33-.65-.71-1.19-.75-.4-.09-.75-.33-1.12-.49-1.13-.85-2.28.1-3.42-.05-.29-.18-.63-.3-.81-.63-.04-1.07-.88-.95-1.58-1.05-.44-.23-.78-.61-1.26-.77-.88-.65-1.9-.02-2.82-.34-.55-.47-1.18-.67-1.88-.82-2.68-.56-5.35-1.14-8.01-1.79-.76-.19-1.57-.41-1.45-1.41.12-.9.94-.93,1.64-.96,1.92-.09,3.83-.13,5.72.38,2.93.78,5.92,1.25,8.88,1.87,2.57.54,4.8.07,6.76-1.81,1.1-1.06,2.47-1.53,3.97-.62.49.35.73.94,1.22,1.29.36.3.77.53,1.22.68.49.17.64.63.89,1.01.18.55.62.78,1.13.93.35.27.52.69.83,1,.1.1.2.21.3.31.33.3.63.63.96.93,1.73.29,3.11-.41,4.34-1.52-.02-.27-.1-.52-.25-.75-.19-.31-.63-.3-.82-.62-.07-.13-.12-.26-.16-.4-.04-.53-.58-.6-.85-.92-.13-.2-.18-.43-.25-.65-.1-.93-1.13-1.01-1.52-1.67-.1-.13-.18-.26-.27-.4-4.24-3.62-7.73-8-11.84-11.75-1.35-1.24-2.88-2.23-3.9-3.88-.7-1.14-2.04-1.68-3.46-1.76-1.02-.51-1.1-1.37-.87-2.34.13-.36.38-.59.74-.71,1.66-.27.82-1.61,1.05-2.37,0,.38.07.89-.04,1.37-.16.72-.59.77-1.13.33-.95-2.48-.97-5.08-1.07-7.67.12-.37.38-.63.71-.82.26-.19.68-.28.65-.7-.03-.53-.55-.49-.89-.65-1.07-.97-1.07-1.26.07-1.69.46-.18.98-.2,1.36-.58.79-.22.97-.85,1.18-1.55,1.24-4.16,3.02-8.07,5.55-11.62.82-1.15,1.68-2.25,3.14-2.66.55-.15.83-.6,1.16-1.01.7-.87,1.46-1.83,2.57-2.01,1.78-.3,2.66-1.52,3.52-2.85,1.87-2.89,3.61-5.73,3.67-9.43.04-2.37,1.49-4.51,2.82-6.51,2.64-3.98,5.35-7.92,8.06-11.85.75-1.09,1.18-2.22,1.18-3.57.02-6.65,1.48-13.06,3.31-19.41.14-.5.5-1.1.12-1.5-.47-.5-.83.46-1.54.3,1.5-2.17,2.68-4.56,4.47-6.33,3.23-3.18,5.39-7.16,8.42-10.47,5.09-5.56,9.56-11.59,13.7-17.88,1.05-1.6,2.14-3.22,4.13-3.86.97-.31.42-.93.14-1.38-1.95-3.1-3.94-6.18-5.89-9.28-2.02-3.2-4.01-6.41-6.01-9.62-.7-1.11.16-1.79.81-2.37.59-.53,1.44-1.31,1.88.29.09.32.75.18,1.14.12,5.58-.87,11.16-1.78,16.74-2.62.92-.14,1.03-.55.84-1.28-.65-2.49-1.83-4.64-3.91-6.25-.85-.66-1.84-.72-2.82-.74-4.25-.11-8.5-.23-12.74-.24-1.95,0-3.39-1.05-4.9-2.01-.58-.36-.25-.79-.15-1.22.81-3.4,1.85-6.72,2.98-10.02.33-.03.53.05.36.43-.02,2.91-1.34,5.52-1.93,8.3-.42,1.97-.11,2.79,1.85,3.18,3.09.61,6.24.38,9.37.33,2.58-.05,5.1.39,7.64.57,1.78.13,2.87,1.46,3.69,2.9.81,1.41,1.52,2.9,1.76,4.54.13.94.56,1.11,1.41,1,9-1.22,17.96-2.64,26.81-4.69.82-.19,1.04-.47.81-1.28-.49-1.74-.97-3.48-1.34-5.24-.73-3.54-.07-6.89,1.62-10.06.35-.07.53.02.4.41-.23,1.2-.26,2.48-.74,3.57-1.18,2.65-.7,5.19.1,7.78.23.74.6,1.04,1.37,1,1.8-.09,3.71.2,5.38-.31,1.23-.37,2.5-.82,3.74-1.25,3.3-1.15,6.06-.74,8.69,1.94,5.58,5.68,11.86,10.59,18.21,15.4,2.4,1.81,4.95,3.5,6.55,6.19.61,1.02.86,2.03.54,3.16-.53,1.87-.7,3.8-.77,5.7-.13,3.71-2.13,6.17-4.99,8.14-1.82,1.25-3.78,2.33-5.23,4.03-.45.53-1.03.11-1.51.56-1.11,1.05-1.9,2.18-1.85,3.77.05,1.81.08,3.61.11,5.42,0,.59.16.95.85,1.06,1.41.22,2.64,1.13,4.2.96.99-.11,1.87.59,2.68,1.15,5.96,4.14,10.72,9.48,15.12,15.17.64.83.44,1.85.18,2.7-1.93,6.3-3.13,12.77-4.61,19.18-7.83,34.01-15.59,68.04-23.37,102.06-9.99,43.68-19.98,87.36-29.97,131.04-.34,1.48-.67,2.95-1.01,4.43h-12.59c-.58-.51-.51-1.13-.38-1.82,1.19-6.67,2.4-13.34,3.56-20.02,1.38-7.96,2.87-15.89,4.21-23.85.41-2.45.86-4.9,1.42-7.32.37-1.14.35-2.37.73-3.32-.23.73-.41,1.67-.53,2.63-1.51,6.68-2.5,13.46-3.76,20.18-1.25,6.64-2.33,13.31-3.59,19.96-.72,3.79-1.3,7.62-2.03,11.42-.16.83-.33,1.6-1.02,2.15h-1.75c-1.1-.82-.61-1.91-.43-2.9,1.68-9.35,3.46-18.68,5.16-28.03,3.08-16.91,6.24-33.81,9.32-50.73.45-2.46.14-2.92-2.35-3.11-3.39-.26-6.74.37-10.09.74-16.86,1.85-33.61,4.46-50.38,6.91-6.46.94-12.92,1.82-19.37,2.84-3.04.48-3.44.8-3.67,3.86-.48,6.39-1.02,12.77-1.55,19.15-.51,6.21-1.06,12.41-1.57,18.62-.51,6.27-1.03,12.53-1.56,18.8-.34,4.06-.6,8.13-1.07,12.18-.08.67-.3,1.24-.83,1.67h-11.2c-.98-.76-.85-1.86-.85-2.89-.02-7.64-.27-15.29.05-22.91.54-12.94.13-25.88.27-38.82.08-6.88,0-13.76.02-20.64,0-4.09-1.05-8.08-1.25-12.15-.02-.46-.11-.92-.14-1.39-.2-2.96-.67-3.55-3.55-4.03-6.49-1.08-13.02-1.91-19.59-2.39-3.31-.24-6.63-.28-9.94-.5-3.52-.23-7.1.03-10.64.29-.65.05-1.28.22-1.83.55-2.54,1.54-5.2,2.89-7.61,4.64-3.17,2.31-4.08,5.83-4.92,9.35-.28,1.15.26,2.28.78,3.35,5.53,11.39,10.2,23.14,14.4,35.08,3.34,9.47,5.92,19.15,7.84,29.01,1.34,6.92,2.38,13.9,3.11,20.91.1.94.07,1.88-.79,2.55h-41.98c-1.06-.43-1.35-1.37-1.58-2.35-1.27-5.57-2.45-11.15-3.75-16.71-3.01-12.89-6.25-25.71-11.02-38.09-.99-2.56-2.05-5.08-3.09-7.61-.77-1.87-1.56-2.02-2.84-.42-3.1,3.86-5.92,7.94-8.9,11.9-5.82,7.73-11.33,15.68-16.95,23.54-6.4,8.96-12.6,18.07-18.58,27.32-.6.94-1.23,1.84-2.21,2.43H0Z"/>
      <path class="cls-21" d="M294.95,350.46c-1.82,10.61-3.64,21.22-5.45,31.83-1.23,7.22-2.45,14.45-3.68,21.68h-1.4c3.13-16.87,6.26-33.74,9.41-50.61.22-1.2.53-2.38.8-3.58.61,0,.5.32.32.68Z"/>
      <path class="cls-12" d="M254.36,26.84c.3,1.32-.19,1.83-1.61,1.54.17-1.07,1.2-1.76,1.14-2.83-.2-.05-.36-.14-.4-.09-.51.46-.99,1.24-1.72.81-.34-.2-.36-1.08-.37-1.65-.02-1.52.27-2.99.9-4.4.2-.45.99-1.03.4-1.45-.54-.38-1.43-.77-2.13.16,1.08-2.4,3.36-3.83,4.53-6.04-.36-.62-1.13.31-1.33-.38-.2-.7.32-1.14.81-1.59,2.28-2.1,4.85-3.77,7.56-5.29-.27-.58-.87-.04-1.27-.4,2.04-2.38,4.78-3.3,7.67-3.88,1.14-.23,2.31-.28,3.46-.42.7-.08.71-.14.21-.87,9.03-.59,17.1,3.95,25.84,5.07.16.48-.2.75-.44,1.06-1.42.59-1.91,1.63-1.88,3.16.1,4.36,0,8.72.05,13.08.02,1.75-.26,3.47-.33,5.21-.09,2.16,2.22,4.04,4.3,3.58.88-.2.95-.96,1.04-1.63.42-3.17.86-6.34.93-9.53.08-3.6.01-7.21.02-10.81.82-1.71,2.31-2.01,3.44-.7,6.63,2.15,11.89,6.05,15.3,12.22,1.15,2.08,2.06,4.3,3.97,6.31-1.36-.28-1.83-.12-1.65,1.22.36,2.54.85,5.05,1.26,7.58.15.9.75,2.19-1.19,1.87-.49-.08-.38.49-.36.79.05.81.21,1.62.22,2.43,0,.67.91,1.81-.83,1.77-.38,0-.41.68-.36,1.06.13,1.19-.45,2.02-1.32,2.69-1.88,1.45-2.69,3.44-3,5.74-1.05-.1-1.05-1.11-1.53-1.77-1.16.75-1.06,1.99-1.29,3.18-1.64-.71-3.02-.43-4.29.91-1.03,1.08-1.84,2.43-3.31,3.04-.14.11-.3.17-.48.18-1.5.15-2.85.75-4.22,1.34-1.41.61-2.9.88-4.44.91-8.36,2.51-16.53-5.78-15.81-14.39.34-4.02,2.26-7.12,4.74-10.04.64-.75,1.36-1.43,2.04-2.14.53-.51.88-1.09.63-1.86.33-2.16-.95-3.79-1.8-5.57-.19-.39-.57-.49-.92-.64-1.71-1.89-4.09-2.58-6.32-3.5-1.65-.68-3.34-1.25-5.5-2.04,1.46,2.04,3.35,3.18,3.57,5.4-1.49-1.54-2.86-3.19-4.51-4.54-1.84-1.5-3.67-3.15-6.31-1.67-.05.03-.12.04-.17.03-3.84-.64-5.43,1.97-6.9,4.75-.19.36-.34.75-.77.9-.95.31-2.03.3-2.81,1.07h0c-.83.33-1.94.01-2.46,1.06Z"/>
      <path class="cls-120" d="M197.96,224.12c-.23-.11-.47-.23-.7-.34-.33.08-.56-.06-.71-.34-.2-.37-.19-1.07-.89-.72-.46.23-.92.6-.74,1.24.57,1.91.23,3.94.74,5.85.03.11.08.23.05.34-.38,1.68.38,2.64,1.95,3.09.57.29-.07,1.22.73,1.38.17,1.29-.93,1.32-1.67,1.61-5,1.96-10.21,3.24-15.33,4.84-7.29,2.28-14.7,4.11-22.1,5.99-7,1.78-14.02,3.49-20.94,5.55-5.47,1.62-11.12,2.9-16.28,5.28-5.67,2.61-11.9,3.04-17.58,5.44-3.48,1.47-7.05,2.76-10.55,4.22-1.2.5-2.29,1.16-2.93,2.37-.27.92-1.7-.09-1.81,1.09-.63.24-.82.82-.95,1.38-1.11,4.88-3.51,9.24-5.65,13.69-4.9,10.18-10.27,20.12-15.69,30.03-2.04,3.72-3.82,7.61-6.62,10.86-7.63,8.86-14.48,18.36-22.43,26.97-5.48,5.94-10.75,12.1-15.54,18.63-1.24,1.69-2.37,3.46-3.55,5.18-.55.79-1.06,1.73-2.25,1.72-.45-.21-1.05.17-1.43-.35,3.76-6.54,8.62-12.27,13.49-17.97,6.15-7.2,12.44-14.28,18.56-21.51,2.78-3.28,5.07-6.99,7.99-10.13,6.41-6.92,9.86-15.59,14.38-23.61,4.72-8.36,9.03-16.95,12.98-25.71,1.18-2.63,2.7-5.18,2.91-8.17.02-.27.15-.59.34-.77,2.7-2.63,5.19-5.45,8.87-6.9,15.93-6.29,32.31-11.22,48.73-16.01,10.61-3.09,21.39-5.59,32.09-8.4,2.98-.78,5.91-1.75,8.87-2.6.89-.26,1.12-.67.96-1.63-.67-3.96-1.2-7.95-1.86-11.91-.22-1.33,0-1.97,1.53-2.16,4.62-.6,9.21-1.37,13.81-2.08-.21.66-.85.78-1.34,1.12-.62.44.02.52.33.66.87.86,1.01,1.78.26,2.79Z"/>
      <path class="cls-61" d="M254.36,26.84c.3-.8.6-1.59.98-2.59.57.59,1.02,1.06,1.48,1.53-.37,1.41-.31,2.65.85,3.8.7.69,1.08,1.69,1.68,2.69-1.12-.09-1.08-1.66-1.87-1.25-.8.41-.13,1.48-.22,2.26-.15,1.32.44,2.71-.48,4.19-.42-1.49-.2-2.86-.33-4.2-.11-1.13.09-2.25-.93-3.22-.46-.44-.65-1.43-.32-2.27.32-.8.13-1.26-.85-.93Z"/>
      <path class="cls-36" d="M266.34,34.4c.67.16,1.33.31,2,.47.64-.06,1.26.09,1.85.27.55.17.53.24-.18.8-1.1.57-2.29-.81-3.37.17-.17-.17-.18-.34-.02-.52-1.22-.7-1.48-.69-1.95.27-.6,1.21-1.28,2.76-.66,3.81.57.96,1.93-.34,2.99-.35.45,0,.9-.18,1.35-.27.25.33.31.65-.02.97-2.34.4-4.59,1.62-7.1.83,0-.52.37-.41.58-.4,1.3.1,1.79-.47,1.6-1.75-.18-1.19.75-2.44-.17-3.62-.04-.06.32-.43.49-.66.87-.4,1.74-.74,2.62-.02Z"/>
      <path class="cls-4" d="M252.64,61.18c-.12-.14-.24-.29-.36-.43-.03-1.31-.49-2.53-1.15-3.6-.71-1.16-.85-2.26-.28-3.44.84-1.75.62-3.34-.56-4.86-.54-.7-.74-1.56-.98-2.4.07-.24.23-.37.47-.41.75,1.24,1.53,2.46,2.22,3.73.29.53.78,1.13.43,1.79-1.46,2.75-.53,5.35.41,7.96.21.58.15,1.14-.19,1.66Z"/>
      <path class="cls-35" d="M271.03,28.97c-1.57-.09-3.13-.2-4.7-.26-.92-.03-1.91-.19-2.65.53-.64.62-1.05.02-1.53-.19-.21-.09-.44-.28-.33-.54.23-.59.82-.59,1.31-.67,3.01-.48,6.02-.41,9.03.06.54,1.33-.3,1.19-1.13,1.07Z"/>
      <path class="cls-131" d="M249.79,46.03c-.16.14-.31.27-.47.41-1.51-1.77-1.48-2.37.43-3.26,3.19-1.49,6-3.51,8.64-5.98.42.95-.22,1.29-.64,1.68-2.09,1.97-4.43,3.64-7.05,4.75-1.49.63-1.35,1.32-.91,2.4Z"/>
      <path class="cls-55" d="M270,35.94c.34-.75-.37-.44-.61-.58-.34-.19-.7-.33-1.06-.49.59-.28,1.13-.33,1.82-.15,2.17.58,4.2,1.43,6.51,2.47-1.66.79-2.95,1.58-4.61,1.35.38-.91,1.37-.28,1.84-.94-1.1-1.05-2.75-.79-3.9-1.66Z"/>
      <path class="cls-1" d="M260.47,59.6c-2.26-.1-4.53-.18-6.79-.32-.5-.03-.6-.49-.5-.93.14-.62.53-1.14,1.18-1.06,2.15.27,4.29.63,6.21,1.68-.03.21-.07.42-.1.62Z"/>
      <path class="cls-124" d="M305.05,58.52c-.35.27-1.07-.1-1.09.77-.05,1.69-1.9,1.67-2.69,2.68-.04.06-.32,0-.44-.09-.25-.16-.22-.38-.03-.57.28-.27.57-.53.95-.87-.53-.03-1.02-.07-1.51-.1-.37-.3-.28-.7.04-.83,1.41-.6,2.76-1.38,4.27-1.7.49-.1,1.44-.3.51.72Z"/>
      <path class="cls-56" d="M305.19,8.54c-1.03-.66-1.8.08-2.63.49-.43.18-.79.04-1.1-.27-1-.99-2.1-1.81-3.46-2.24-.48-.15-.8-.46-.71-1.03.26-.12.51-.25.77-.37,1.78.31,3.53.76,4.82,2.09.68.7,2.14-.11,2.32,1.33Z"/>
      <path class="cls-116" d="M289.64,31.61c.39,1,.3,1.73-.99,1.83.62-3.03-1.01-5.48-2.1-8.07.46-.18.92-.4,1.36.03-.04,1.34.98,2.28,1.28,3.51.21.89.57,1.75.45,2.69Z"/>
      <path class="cls-90" d="M288.79,64.36c-2.1,2.05-4.79,2.88-7.48,3.72,2.31-1.62,4.83-2.81,7.48-3.72Z"/>
      <path class="cls-101" d="M305.05,58.52c-.04-.16-.08-.31-.12-.47-1.69.51-3.51.76-4.7,2.28-.91.39-1.72-.08-2.55-.33,2.41-.87,4.82-1.75,7.23-2.61.45-.16.97-.44,1.35.16-.23.62-.24,1.41-1.17,1.47-.02-.17-.03-.34-.05-.52Z"/>
      <path class="cls-61" d="M256.81,25.78c-.09-1.14,1-1.49,1.6-2,.63-.53.72.7,1.21.94-.68,1.07-1.35,2.13-2.04,3.22-.76-.63.97-1.96-.77-2.15Z"/>
      <path class="cls-11" d="M271.03,28.97c.61-.11,1.08-.36,1.13-1.07,1.49-.06,2.46.84,3.79,2.05-1.92-.38-3.42-.68-4.92-.98Z"/>
      <path class="cls-105" d="M266.34,34.4c-.87,0-1.75.02-2.62.02.56-1.4,1.77-1.13,2.77-.88.74.18.06.58-.15.86Z"/>
      <path class="cls-86" d="M266.6,35.59c0,.17.02.35.02.52-.21.57-1.09.95-.42,1.78.19.23-.11.55-.4.62-.43.1-.63-.18-.64-.57-.02-1.08.54-1.82,1.44-2.34Z"/>
      <path class="cls-27" d="M305.1,59.03c.39-.49.78-.98,1.17-1.47.18,0,.37.01.55.02-.69,1.18-1.38,2.36-2.07,3.55-.13-.14-.27-.27-.4-.41.25-.56.5-1.12.75-1.68Z"/>
      <path class="cls-54" d="M268.31,40.01c0-.32.01-.65.02-.97.82.44,1.64-.23,2.66-.02-.78.96-1.83.72-2.68.99Z"/>
      <path class="cls-74" d="M91.01,269.93c-.37-.15-.73-.31-1.17-.49.95-1.27,2.15-2.04,3.5-2.6,6.06-2.55,12.11-5.26,18.54-6.65,4.23-.92,8.07-2.71,12.11-4.02,9.47-3.07,19-5.9,28.66-8.32,14.9-3.73,29.77-7.58,44.32-12.55.49-.17.94-.44,1.42-.66,1.49-.16,4.01,1.31,4.69,2.91.33.78.79,1.23,1.51,1.56.41.19.79.49,1.11.81,4.07,4.15,8.14,8.31,12.2,12.47-.55,1.2-1.79,1.21-2.8,1.5-1.57.45-3.1,1.4-4.85.68-1.21-.91-2.33-.75-3.39.51-1.48,1.75-3.45,2.38-5.59,2.04-3.55-.57-7.07-1.34-10.59-2.1-2.18-.47-4.35-.52-6.59-.39.16.73.73.6,1.13.69,2.66.61,5.33,1.2,7.99,1.81.73.17,1.47.36,1.99.98.18,1.31-1.04,1.2-1.68,1.67-2.61.71-5.27,1.25-7.64,2.64-.58.34-1.24.12-1.85.21-3.78-.28-7.47-1.1-11.16-1.87-4.86-1.01-9.58-1.15-14.45.1-4.48,1.15-9.11,1.74-13.72,3l4.96.56c.78.34.66.86.03,1.08-3.51,1.26-6.92,2.73-10.32,4.24-.47.21-1.05-.11-1.52.23-2.25,1.15-4.57.26-6.86.19-1.2-.04-2.4-.25-3.7-.39.13.9.87,1.09,1.22,1.72-.95,1.04-2.12,1.57-3.59,1.63-1.68.06-3.44-.01-5.03.44-1.81.52-3.34,1.75-4.77,3.04-.68.61-1.14,2.06-2.19,1.51-.53-.28.52-1.45.68-2.28.1-.51.32-1,.45-1.5.72-2.72.53-2.76-1.95-3.89-1.98-.9-3.89-.87-5.93-.63-5.04.59-10.1.75-15.16.14Z"/>
      <path class="cls-74" d="M16.51,379.49c1.97-2.8,3.91-5.63,5.91-8.41,3.9-5.39,8.39-10.29,12.72-15.32,6.53-7.58,13.39-14.9,19.2-23.08.91-1.28,1.84-2.58,2.97-3.66,4.03-3.88,6.41-8.83,9.03-13.63,6.3-11.56,12.58-23.13,18.06-35.1,1.23-2.69,2.55-5.36,3.04-8.34.15-.9.44-2.06,1.78-.92.74,2.37.48,4.73-.14,7.07-2.43,9.11-6.18,17.71-10.18,26.21-.68,1.45-1.39,2.89-1.93,4.46,9.16-7.98,19.76-14.04,28.77-22.27-.17.3-.32.61-.52.89-3.6,4.87-7.21,9.75-10.82,14.61-3.92,5.27-8.69,9.73-13.52,14.12-5.48,4.98-11.13,9.76-16.71,14.62-.39.34-.84.66-1.14,1.08-3.37,4.59-6.65,9.23-10,13.92,1.35-.95,2.71-1.89,4.06-2.86,11.32-8.12,22.54-16.39,34-24.31,6.63-4.58,12.97-9.5,19.17-14.63.14-.03.28-.09.39.08.12.21.07.37-.12.51-4.92,5.53-9.72,11.16-14.78,16.56-5.15,5.49-10.88,10.37-16.78,15.03-14.42,11.38-29.36,22.03-44.86,31.88-3.35,2.13-6.69,4.21-9.56,6.96-2.08,2-4.58,3.38-7.05,4.8-.37.11-.68.99-1.12.08.05-.12.09-.24.14-.37Z"/>
      <path class="cls-74" d="M292.14,167.8c1.27-.75,2.73-1,4.09-1.48,1.59-.57,3.18-1.18,4.18-2.69,4.83-7.28,11.78-12.16,18.94-16.82,1.17-.76,2.35-1.63,3.65-2.03,1.86-.58,2.15-1.74,2.05-3.41-.1-1.73.03-3.08-1.81-4.51-3.35-2.59-5.34-6.39-6.45-10.56-.44-1.67-.98-3.31-1.61-5.39,3.59,4.11,7.04,7.77,9.84,12.02.93-.86.29-1.93.87-2.82.69,1.75,1.34,3.41,1.99,5.07.94-4.31,1.74-8.57,2.21-12.98.1.74.2,1.48.31,2.22.91,5.88,1.43,11.75,1.1,17.74-.23,4.16-2.66,6.22-5.7,8.09-.94.58-1.95,1.35-2.97,1.42-3.58.26-5.67,3.02-8.4,4.67-2.99,1.81-5.83,3.85-8.69,5.86-1.2.84-2.84,1.15-3.53,2.69.36.55.86.29,1.28.27,1.98-.07,3.97-.02,5.91.36,2.19.42,4.2.34,6.19-.91,4.07-2.56,8.89-3.38,13.2-5.56.2.66-.27.83-.53,1.06-2.67,2.27-4.6,5.25-7.32,7.49-2.48,2.05-5.17,3.78-7.88,5.48-2.03,1.28-4.38.6-5.67-1.48-.39-.63-.72-.61-1.26-.36-5.5,2.55-11.36,4.21-16.77,6.98-.72-.52-.57-1.2-.35-1.88.93-2.89,1.26-6,3.12-8.55Z"/>
      <path class="cls-121" d="M320.78,202.76c.48-1.24.96-2.48,1.44-3.73.73.23.04.86.49,1.19,1.13-2.99,2.26-5.96,3.47-9.14.59,1.2.01,2.21-.07,3.18,1,.3.61-.88,1.41-1-.71,5.8-1.95,11.45-2.93,17.13.26,2.23-.46,4.36-.61,6.55-1.3,3.38-1.71,6.96-2.24,10.5-.09.57-.14,1.15-.25,1.72-.23,1.96-.76,3.85-1.2,5.77-.13.58-.35,1.1-.81,1.49-2.01,9.33-4.01,18.66-6.02,28-.1.45-.23.9-.35,1.35-.86-.12-.45-.67-.38-1.11,1.24-7.56,2.5-15.12,3.72-22.68.8-4.98,1.56-9.98,2.33-14.97.07-1.79.4-3.54.77-5.29.52-2.35.89-4.73,1.43-7.07.21-1.02.26-2.07.62-3.05-.31.85-.4,1.75-.55,2.64-.47,2.16-.86,4.33-1.3,6.5-.54,1.71-.34,3.6-1.35,5.19-5.1,21.44-9.07,43.09-11.73,64.97-.06.46-.14.92-.17,1.39-.05.99-.88.89-1.42.85-.74-.06-.36-.72-.3-1.11,1.42-8.56,2.92-17.11,4.28-25.69,1.54-9.72,2.96-19.46,4.43-29.2-.1-1.31-.27-2.61.01-3.92.6-1.75.21-3.7,1.08-5.39,0-1.72.73-3.25,1.26-4.83,1.97-2.14,1.77-4.41.64-6.91-1.81-4.02-2.1-8.34-1.94-12.67.14-3.87-.29-7.84,1.07-11.56,1.15-3.15,2.61-6.18,4.8-9.31-.87,4.08-1.64,7.72-2.41,11.36,1.03-.52,1.21-1.43,1.46-2.27,1.27-4.24,2.57-8.47,3.74-12.74.54-1.97,1.56-3.6,2.79-5.16.14-.12.27-.12.39.02-1.68,6.83-3.39,13.65-4.75,20.55-.48,2.45-.84,4.93-1.26,7.39-.37.63.21,1.31-.11,1.91.11-.28.21-.6.48-.83Z"/>
      <path class="cls-74" d="M126.27,365.14c-3.14-4.58-7.05-8.53-10.57-12.8-4.33-5.25-8.26-10.83-12.92-15.81.32-.43.56-.14.76-.02,5.73,3.58,11.44,7.16,16.55,11.66,8.72,7.69,16.48,16.31,24.4,24.78,2.67,2.85,5.23,5.79,7.88,8.66.94,1.02,1.49,2.14,1.76,3.52.82,4.11,1.21,8.28,1.88,12.56-1.01-.23-1.36-.95-1.77-1.52-3.94-5.45-8.58-10.29-13.16-15.18-.5-.53-.89-1.29-1.82-1.16-1.08-.09-1.53-1.03-2.23-1.64-1.58-2.62-4.14-4.46-5.65-7.12-1.9-1.82-3.28-4.07-5.1-5.95Z"/>
      <path class="cls-74" d="M246.32,227.94c6.25,8.29,11.55,17.25,18.14,25.29,4,4.88,7.43,10.16,11.14,15.25.92,1.27,1.88,2.52,1.59,4.24-1.77.19-2.78-.96-3.74-2.34-3.7-5.25-7.28-10.56-10.09-16.35-1.29-2.65-3.07-4.9-5.1-7.04-5.15-5.43-9.42-11.56-13.81-17.6-1.51-2.07-3.03-4.14-4.51-6.23-.47-.65-1.1-1.39-.29-2.16.7-.66,1.29-.1,1.8.4.56.56.77.14,1-.31.49-.97.33-1.9-.15-2.83-1.53-3.03-1.19-4.78,1.51-6.81,3.48-2.61,7.25-4.65,11.57-5.52,1.19-.24,2.34-.7,3.51-1.05,1.26-.15,1.19.54.77,1.31-.99,1.82-1.95,3.66-3.14,5.36-.21.29-.46.53-.77.7-1.53,1.01-3.06,2.01-4.81,3.16h13.2c.37.51.26,1.01-.1,1.44-1.99,2.38-3.67,5.03-6.2,6.92-1.86.09-3.72.22-5.58.27-1.14.03-1.32.31-.68,1.3,1.54,2.37,3,4.8,4.55,7.3-3.87-.69-6.74-2.91-9.46-5.38-.73-.07-.61.28-.35.71Z"/>
      <path class="cls-15" d="M223.19,201.35c2.48-5.84,6.12-10.97,9.91-16,.3-.4.79-.68.87-1.39-1.21.29-2.18.8-2.91,1.77-1.43,1.92-3.06,3.66-4.7,5.41-.83.88-1.35,1.94-1.92,3.03-1.65,3.16-4.21,5.74-6.97,8.08,3.17-4.88,4.32-10.98,9.12-14.85.73-.59,1.25-1.19.93-2.36-.33-1.21.91-1.6,1.74-2.1.64-.38.95-.54.54-1.54-.82-2-.23-4.11.41-6.13.08-.26.39-.66.54-.64,1.81.3,1.64-1.25,1.98-2.18,5.33-14.56,12.09-28.41,20.58-41.39.6,0,.57.31.36.71-4.93,11.39-9.91,22.77-14.78,34.19-1.76,4.13-3.41,8.31-4.54,12.67-.13.49-.5,1.1-.05,1.48.44.38.98-.1,1.44-.3,6.5-2.76,13.28-4.33,20.29-4.97.32-.03.67-.2,1.07.22-3.35,1.31-6.63,2.61-9.93,3.86-1.14.43-2.34.73-3.49,1.13q-7.25,2.54-11.62,8.86c-2.9,4.23-5.73,8.51-8.59,12.77-.26.02-.52.04-.28-.35Z"/>
      <path class="cls-41" d="M317.98,249.62c.61-4.05,1.21-8.1,1.82-12.15,0-2.63.85-5.13,1.21-7.71.74-4.11,1.26-8.26,2.23-12.33.59-2.09.66-4.32,1.71-6.28,3.62-12.48,6.36-25.17,9.15-37.85.93-4.21,1.91-8.4,2.92-12.59.1-.41-.18-1.41.82-1.14.84.23.44.96.32,1.48-1.75,7.42-3.31,14.89-4.54,22.42-.5,3.04-.87,6.11-1.29,9.16-.03,1.01-.02,2.02-.42,2.98.17-.44.03-1.01.66-1.31.47.49.31,1.03.17,1.56-.41,4.44-1.46,8.76-2.19,13.15-.8,3.28-1.24,6.63-1.92,9.93-.13.63-.35,1-.78,1.36-3.1,13.51-6.21,27.03-9.31,40.54-.14-.03-.29-.05-.43-.08,1.27-7.5,2.54-15,3.45-22.55-.02-2.13.48-4.2.83-6.28.31-1.4.57-2.8.71-4.23.49-1.78.7-3.62,1.03-5.43.26-1.42.41-2.85.68-3.85-.14.88-.46,2.15-.6,3.46-.38,1.81-.58,3.65-1.01,5.45-.23,1.41-.44,2.82-.7,4.22-.56,1.82-.35,3.82-1.3,5.55-.97,4.53-1.94,9.06-2.91,13.59-.8-.15-.39-.66-.32-1.06Z"/>
      <path class="cls-41" d="M249.79,307.01c9.28.7,18.54.18,27.81-.21,1.1-.05,2.2-.08,3.3-.12.37-.16.41.02.33.32-21,2.17-41.99,4.35-62.99,6.52,2.48-1.14,5.1-1.54,7.7-1.98.22-.2.49-.29.71-.3-.81-.15-1.7-.2-2.6-.16-2.84,0-5.68.02-8.52-.02-.47,0-1.2.45-1.42-.45,4.56-.44,9.05-1.27,13.5-2.44h-9.98c-1.3-.02-2.67.61-3.87-.38,4.17-.53,8.34-1.05,12.91-1.63-3.06-.2-5.71-.37-8.37-.54.16-.82.82-.44,1.24-.47,1.79-.12,3.6.15,5.38-.16,7.83-.11,15.63-.62,23.44-1.09.66.3,1.69-.55,2.07.66-.67.04-1.34.08-2.02.12-1.9.17-3.78.57-5.47.48,1.09.26,2.43-.49,3.74.1h9.38c0,.1,0,.21.01.31-2.8.28-5.59.56-8.39.84-1.93.58-3.92.24-5.58.49,2.36-.13,5.02-.38,7.66.13Z"/>
      <path class="cls-74" d="M304.09,227.64c.2.54-.05.74-.21.96-5.92,8-12.67,15.2-20.43,21.44-2.99,2.4-7.45,2.61-10.6.38-.28-.2-.55-.43-.79-.69-.84-.88-1.25-1.89-.48-2.99.81-1.16,2.01-1.25,3.08-.51,1.44,1,2.35.61,3.55-.53,5.72-5.44,11.9-10.26,18.98-13.86,2.37-1.21,4.56-2.76,6.91-4.21Z"/>
      <path class="cls-74" d="M137.85,377.9c.55.59,1.23,1.09,1.4,1.95,3.69,4.82,7.03,9.87,9.87,15.23.63,1.2,1.1,2.46,1.2,3.81.1,1.44-.31,2.73-1.77,3.28-1.47.56-2.17-.48-2.92-1.54-6.4-9.03-11.4-18.81-15.96-28.86-.75-1.64-1.61-3.23-2.42-4.84.38-.94.77-.26.99.06,1.01,1.42,2.38,2.52,3.41,3.92,1.75,1.85,3.26,3.9,5.16,5.62.43.39.86.78,1.04,1.37Z"/>
      <path class="cls-74" d="M270.46,216.06c.64-1,1.64-.67,2.54-.66,5.74.07,11.26,1.6,16.86,2.56,2.5.43,5.04.65,7.85,1-10.72,2.17-21.06,4.74-31.8,4.46-.42-.69-.18-1.42.16-1.96.93-1.45,1.56-3.06,2.54-4.48.55-.45.9-1.29,1.85-.91Z"/>
      <path class="cls-15" d="M312.74,93.95c-14.03,3.64-28.06,7.29-42.09,10.92-.18.05-.41-.08-.8-.17,1.17-1.42,2.76-1.72,4.17-2.25,1.16-.44,2.15-1.05,3.13-1.82,9.21-7.25,18.78-13.98,29.04-19.68,1-.56,2-1.21,3.37-.97-.32,1.17-1.22,1.71-2.1,2.22-9.12,5.31-17.7,11.44-26.37,17.44-.23.16-.47.31-.67.59,10.43-2.81,20.93-5.18,31.62-6.67.37-.1.78-.27.71.4Z"/>
      <path class="cls-74" d="M223.19,201.35c.09.12.19.23.28.35q.52.68,2,.86c-2.56,1.96-5.78,2.27-8.68,3.69,6.12,2.27,12.34,3.02,18.53,4.01-3.69.13-7.35.36-11.02.56-2.84.16-5.58,1.34-8.48.8-.23-.04-.48,0-.69-.07-2.59-.88-5.06-.95-7.36.86-.49.38-1.27.4-1.74-.22-.57-.76-.04-1.34.48-1.81.55-.51,1.17-.96,1.8-1.38,1.2-.8,2.83-1.05,3.19-2.88.08-.39.88-.7,1.4-.93,2.77-1.24,5.58-2.38,8.62-2.75.79-.1,1.27-.49,1.66-1.09Z"/>
      <path class="cls-98" d="M301.17,290.01c-1.41-1.17-1.79-2.43-1.41-4.4,3.09-16.07,6.72-32.04,9.54-48.16-.57-1.9.63-3.7.31-5.59-.1-.37.18-.71.09-1.09,1.04-1.39,2.09-2.78,3.13-4.16.76-.01.75.56.77,1.06.04.96.05,1.93-.14,2.88-.38,1.77-1.12,3.44-1.44,5.23-.24,1.23-.48,2.45-.74,3.68-3.63,15.41-5.86,31.07-8.71,46.62-.22,1.21-.25,2.49-.93,3.59-.12.17-.28.28-.48.35Z"/>
      <path class="cls-110" d="M309.7,230.78c.09.35.18.7.27,1.05.19,1.75-.24,3.36-1,4.91-4.33,16.26-7.96,32.68-10.64,49.43-.99-.69-1.41-1.37-1.13-2.62,2.67-12.17,4.88-24.43,6.8-36.74.25-1.61.51-3.22.76-4.83-.11-2.07-.09-4.11,1.02-5.97.91-2.04,2.51-3.58,3.93-5.24Z"/>
      <path class="cls-74" d="M310.59,183.85c-7.75,3.6-15,8.17-22.76,11.76-4.21,1.95-8.34,4.08-12.51,6.14-1.04-.94-.14-1.77.18-2.6.31-.8.95-1.36,1.58-1.91.65-1.01,1.81-1.21,2.77-1.7,8.82-4.51,18.05-8.01,27.48-11.03.88-.28,1.74-.65,2.61-.97.38-.22.68-.28.64.33Z"/>
      <path class="cls-74" d="M309.95,101.27c-.04.77-.32,1.41-1.19,1.46-1.91.11-3.4,1.14-4.9,2.14-6.97,4.67-13.53,9.92-20.59,14.46-.48.31-.86.8-1.45.81,1.05-1.17,2.07-2.44,3.23-3.56,5.77-5.52,11.64-10.92,18.5-15.11.95-.58,1.92-1.09,3.03-1.32,1.37-.29,2.55-.08,3.39,1.15l-.02-.03Z"/>
      <path class="cls-78" d="M332.72,208.38c3.19-13.41,6.5-26.79,10.09-40.11.14-.51.28-1.01.42-1.51.34-.07.52.01.38.4-1.05,6.32-2.68,12.51-4.06,18.76-3.32,14.94-6.71,29.86-10.07,44.79-.82-.13-.35-.66-.33-1.05.51-3.22,1.01-6.44,1.52-9.66-.25-3.4,1.07-6.55,1.63-9.82.1-.59.04-1.26.42-1.8Z"/>
      <path class="cls-98" d="M301.89,240.91c.93-1.3,1.86-2.6,2.79-3.9.55-.04.75.35.65.75-.28,1.07-.18,2.26-.91,3.21-3.48,13.8-6.52,27.7-8.63,42.03-.97-.94-1.45-1.42-.95-2.92.91-2.73,1.16-5.69,1.65-8.55,1.37-7.97,2.71-15.95,4.07-23.93-.15-2.35.23-4.59,1.34-6.69Z"/>
      <path class="cls-67" d="M301.17,290.01c.04-.19.07-.39.11-.58,1.32-.67,1.05-2.07,1.24-3.13,1.54-8.82,3.11-17.64,4.66-26.45,1.15-6.51,2.34-13.01,3.58-19.49.4-1.29.47-2.65.79-3.95.35-1.97.8-3.93,1.06-5.91.62-1.6.42-3.4,1.21-4.96.67-.86,1.18-1.85,2.05-2.55.47,1.63-.17,3.12-.6,4.64-.8,1.64-.82,3.44-1.13,5.19-.35,1.19-.25,2.5-.95,3.6-3.85,18.61-7.02,37.33-9.8,56.34-1.04-.84-1.68-1.74-2.21-2.74Z"/>
      <path class="cls-74" d="M283.76,133.87c-2.95,5.37-5.28,11.01-7.14,16.84-.5,1.58-.55,3.1-.25,4.78.67,3.78.35,7.67,1.03,11.46.14.8.29,1.6.4,2.41.06.45.16.99-.43,1.18-.64.21-1.04-.22-1.19-.73-.32-1.05-.64-2.13-.77-3.21-.24-2.02-.35-4.06-.51-6.08-.17-2.06-.18-4.07-.93-6.12-.79-2.17.39-4.45,1.12-6.57,1.05-3.03,2.46-5.88,4.45-8.45,1.42-1.84,2.6-3.86,3.89-5.79.32-.13.45-.06.33.3Z"/>
      <path class="cls-74" d="M309.97,101.3c.19-1.9.68-2.24,2.45-1.68,4.65,1.47,8.04,4.33,10.06,9.34-1.55-1.14-2.83-2.03-4.05-3-1.56-1.23-3.23-2.27-5.03-3.12-.99-.47-1.35-.17-1.43.88-.19,2.72-.1,5.47-1.16,8.44-.65-3.28-1.01-6.26-.68-9.29.06-.56.41-1.13-.19-1.61,0,0,.02.03.02.03Z"/>
      <path class="cls-30" d="M232.85,253.45c-1.18-.49-2.25.14-3.35.38-.98.21-1.91.41-2.81-.35.3-.6,1.01-.45,1.42-.93-2.05.68-4,.46-5.87-.49-.07-1.01.7-1.45,1.33-1.99.4-.1.6-.37.63-.77-.78-1.53-2.03-2.65-3.29-3.81,5.28,1.76,9.85,4.85,14.57,7.66-.05.08-.11.17-.16.25-.82.27-1.63.94-2.47.06Z"/>
      <path class="cls-74" d="M270.81,192.3c-.62.99-.66,2.26-1.51,3.12-.39.39-.68,1.14-1.35.84-.55-.24-.33-.94-.3-1.44.31-4.66,1.65-8.92,4.84-12.47.86-.95,1.68-1.94,2.52-2.91,1.17.04.61.82.51,1.3-.29,1.43-.95,2.75-1.43,4.12-.68,1.92-1.33,3.85-2.11,5.74-.26.65-.5,1.32-1.16,1.69Z"/>
      <path class="cls-67" d="M297.78,297.91c-11.48.82-22.76,1.63-34.06,2.44.38-1.58.45-1.64,1.84-1.71,10.07-.49,20.13-.98,30.2-1.45.64-.03,1.39-.36,2.03.73Z"/>
      <path class="cls-15" d="M287.52,170.19c.8-1.35,2.38-1.4,3.55-2.12.46,0,.63.27.51.67-.99,3.29-1.71,6.67-3,9.87-1.38.72-2.63,1.7-4.15,2.13-.45-.37-.59-.87-.43-1.41.82-2.83,1.75-5.64,2.82-8.38.13-.33.44-.53.7-.75Z"/>
      <path class="cls-117" d="M330.54,83.85c3.17,2.61,6.2,5.35,8.81,8.71-.95.5-1.36-.06-1.68-.44-2.15-2.56-5.01-4.08-7.9-5.58-3.55-1.85-6.8-4.25-10.58-5.69-.38-.15-.82-.36-.69-.86.16-.6.68-.56,1.14-.43,2.04.56,3.74,1.84,5.63,2.72,1.35.63,2.32,2.06,4.02,1.94.32-.42.64-.88,1.24-.38Z"/>
      <path class="cls-78" d="M335.21,152.64c-.15-2.91-.3-5.82-.44-8.73-.1-2.24.97-3.88,2.95-4.71,2.81-1.18,5.85-1.49,8.87-1.8.38-.04.66.16.96.55-1.13.62-2.38.47-3.52.72-3.93.85-6.88,3.83-7.39,7.84-.19,1.5-.36,2.98-.84,4.42-.41.5.34,1.39-.59,1.71Z"/>
      <path class="cls-98" d="M294.61,252.14c-1.47,5.25-2.7,10.55-4.11,15.89-.28-2.35-.39-4.73-.89-7.04-.51-2.38.04-4.22,1.61-6.03,1.29-1.48,2.26-3.23,3.38-4.86,1.45.68.67,1.36,0,2.04Z"/>
      <path class="cls-15" d="M257.84,223.74c1.27-3.05,3.86-5.1,5.78-7.67.17-.23.34-.46.52-.69,1.4-.14,2.79-.23,4.18.06.53.77-.12,1.33-.34,1.97-1.52,1.63-2.69,3.54-4.14,5.23-.31.36-.63.65-1.06.84-1.63.42-3.28.29-4.94.26Z"/>
      <path class="cls-117" d="M279.96,131.1c-1.94,5.47-4.46,10.76-5.25,16.6-.07.53-.18,1.1-.85,1.13-.61.03-.91-.45-1.11-.96-.32-.85-.2-1.72-.04-2.58.98-5.47,3.66-10.13,6.82-14.58.34-.09.5.03.43.39Z"/>
      <path class="cls-21" d="M269.13,293.81c.66-1.12,1.4-1.48,2.41-1.52,6.87-.31,13.72-.88,20.56-1.61.17-.02.35,0,.52-.04.78-.16,1.35.21,1.43.91.11.96-.79.63-1.25.67-5.91.63-11.85.91-17.79,1.22-1.89.1-3.77.24-5.88.37Z"/>
      <path class="cls-117" d="M244.87,245.14c-8.36-3.52-16.72-7.03-24.41-11.95,8.87,2.75,16.88,7.35,25.03,11.66.02.59-.29.46-.62.29Z"/>
      <path class="cls-34" d="M277.09,197.22c-.17,1.67-1.42,2.92-1.76,4.52-2.12,1.34-4.36,2.44-6.61,3.52-.96-.32-.68-1.04-.46-1.64.41-1.1.98-2.12,2.17-2.59,1.63-2.3,4.19-2.97,6.66-3.8Z"/>
      <path class="cls-67" d="M295.59,248.96c.17-1.27,1.36-1.48,2.17-2.07.33-.07.53.11.69.37.3,1.26-.06,2.45-.43,3.63-.39,1.25-.2,2.71-1.35,3.68-.95,3.72-1.91,7.44-2.86,11.16-.67.02-.43-.4-.36-.74.51-4.03,1.01-8.07,1.52-12.1.13-1.32.02-2.68.62-3.92Z"/>
      <path class="cls-74" d="M153.88,270.96c-2.01.85-4.11.31-6.16.36-.33-.62.18-.87.55-1.07,2.69-1.52,5.45-2.88,8.34-3.96.51-.19,1.03-.06,1.54-.14,1.02,0,2.03,0,3.05,0,.58.22.76.71.27,1.02-2.42,1.47-4.71,3.23-7.59,3.79Z"/>
      <path class="cls-130" d="M197.66,233.25c-.78.18-1.57.35-2.46.55-.08-3.73-.33-7.36-1.12-10.93-.22-.97.43-.95.96-.98.64-.04,1.49-.8,1.88.38.16.49.22,1.01.33,1.52.09,2.7.66,5.34,1.12,7.99.34.36.23.7-.03,1.04l-.69.43Z"/>
      <path class="cls-74" d="M224.2,249.29c.55.34.69.8.4,1.38-1.31.72-2.77.88-4.2,1.1-2.36-2.16-4.01-4.93-6.08-7.45,1.39.84,2.78,1.67,4.18,2.51,1.79,1.07,3.6,2.11,5.7,2.46Z"/>
      <path class="cls-125" d="M235.48,253.14c1.76.8,3.33,1.87,4.58,3.37.4.48.85,1.09.35,1.72-.54.68-1.3.48-1.89.07-1.24-.87-2.57-1.55-4.02-2.02,0-.7.69-.49,1.07-.96-1.67.27-3.27.75-4.66-.43.09-.98.99-.78,1.54-.96.95-.3,1.99-.33,2.93-.73l.1-.06Z"/>
      <path class="cls-117" d="M153.99,265.47c1.12-.28,2.24.01,3.36-.02.5.44.17.75-.23.9-3.4,1.37-6.64,3.08-9.94,4.67-.43.21-.93.05-1.34.31-.2,0-.4,0-.61,0-.67-.46-1.96.35-2.11-.54-.16-.93,1.12-1.16,1.85-1.55,2.04-1.09,4.15-2.06,6.2-3.13.9-.47,1.81-.71,2.82-.65Z"/>
      <path class="cls-117" d="M189.62,264.01c-.47-.15-1.04.07-1.45-.36-.14-.68.34-.97.83-1.14,2.83-1,5.54-2.34,8.43-3.19.57-.17,1.14-.08,1.71-.13,1.01-.18,1.92-.02,2.72.67-.22.49-.7.47-1.02.7-.07.09-.12.22-.21.27-3.48,1.71-6.9,3.64-11.01,3.19Z"/>
      <path class="cls-103" d="M270.43,201.02c-.23,1.55-1.85,2.53-1.71,4.23-1.86,1.02-3.71,2.04-5.57,3.06-.53-1.22.01-2.3.46-3.39.8-.89,1.42-1.97,2.61-2.43.95-.53,1.91-1.03,2.84-1.59.51-.3.95-.33,1.38.11Z"/>
      <path class="cls-45" d="M273.22,289.94c.19-1.1.84-1.17,1.49-1.22,5.4-.39,10.8-.78,16.21-1.18.42-.03.89-.09,1.02.41.14.54-.36.48-.67.51-5.97.49-11.94.97-18.05,1.47Z"/>
      <path class="cls-63" d="M315.16,267.37c-2.01,10.91-4.01,21.83-6.02,32.74-.21-.04-.41-.08-.62-.11,2.05-10.9,4.09-21.81,6.14-32.71.17.03.34.05.51.08Z"/>
      <path class="cls-74" d="M193.6,258.75c.53-.22,1.06-.44,1.59-.66,1.09-.17,2.13.13,3.18.32.14.47-.06.83-.49.96-3.34,1.07-6.51,2.62-9.86,3.67-.16.05-.34,0-.51-.05-.46.1-.92.19-1.38.29-.3-.33-1.07.14-1.09-.56-.02-.46.49-.61.85-.77,2.53-1.15,5.07-2.3,7.71-3.2Z"/>
      <path class="cls-117" d="M201.52,260.86c1.23-.52,2.45-.47,3.67.03.47.49.1.91-.26,1.04-2.75,1.03-5.36,2.53-8.39,2.7-1.32.69-2.65.05-3.97.01-.3-.48-.03-.78.38-.92,2.84-1,5.58-2.29,8.57-2.86Z"/>
      <path class="cls-138" d="M298.09,247.29c-.11-.13-.22-.27-.33-.4,1.06-1.61,2.11-3.21,3.17-4.82.28-.06.48.06.44.34-.24,1.42-.34,2.89-1.14,4.16-.97,3.93-1.95,7.87-2.92,11.8-.84-.11-.37-.67-.37-1.07.04-.54.07-1.09.11-1.63.07-1.38.09-2.77.48-4.11.08-1.44.94-2.77.56-4.27Z"/>
      <path class="cls-30" d="M151.14,265.15l.7-.15c.38-.11.82-.32,1.03.19.14.32-.19.5-.45.61-3.44,1.46-6.6,3.48-10.1,4.81-1.31.4-2.6.72-3.8-.3,1.94-1.61,4.33-2.34,6.6-3.27,1.94-.8,3.83-1.84,6.01-1.89Z"/>
      <path class="cls-15" d="M267.29,216.59c.34-.38.68-.77,1.02-1.15.78-.02,1.73-.65,2.15.61-.35.43-.71.85-1.06,1.28-1.36,1.98-2.58,4.05-3.89,6.06h0c-.28.3-.65.2-.98.2-1.44-.01-1.53-.18-.81-1.46,1.07-1.92,2.47-3.64,3.56-5.54Z"/>
      <path class="cls-74" d="M285.09,171.28c.48-.35.95-.7,1.43-1.04.7-.06.59.39.46.78-1.05,3.24-1.9,6.55-3.29,9.68-.53.27-1.02.58-1.37,1.08-.79.06-.89-.51-.75-1.02.95-3.24,1.47-6.65,3.52-9.48Z"/>
      <path class="cls-30" d="M267.68,98.16c.2,2.05.96,4.09.34,6.21-.25.87-.65,1.57-1.66,1.36-.99-.21-1.16-1.01-1.05-1.9.25-2.06,1.7-3.65,2.37-5.67Z"/>
      <path class="cls-117" d="M217.96,252.86c.96.21,1.66.67,1.76,1.74-2.28,1.32-4.58,2.5-7.35,1.69-.3-.24-.61-.48-.91-.72-.61-.8.09-.89.58-1.04,1.96-.6,3.88-1.37,5.92-1.67Z"/>
      <path class="cls-34" d="M207.83,262.63c.75-.17,1.44,0,2.11.32.43.68.06,1.16-.51,1.37-1.91.71-3.72,1.83-5.87,1.74-1.23.59-2.46.03-3.68,0-.27-.53-.02-.97.43-1.14,2.45-.94,4.8-2.25,7.53-2.29Z"/>
      <path class="cls-15" d="M279.18,184.24c-.29.74-.82,1.3-1.37,1.84-.77-.01-.81-.54-.69-1.08.77-3.48,1.76-6.89,3.75-9.91.23-.86.89-1.42,1.45-2.05.8-.05.91.53.73,1.03-1.16,3.22-1.93,6.59-3.36,9.72-.1.21-.32.33-.52.46Z"/>
      <path class="cls-34" d="M222.92,265.15c-.22-.06-.64-.11-.98-.3-.55-.3-1.28-.63-1.24-1.32.04-.53.8-.56,1.27-.76.86-.35,1.73-.68,2.61-.98.42-.14.9-.45,1.27.04.29.4.27.9.07,1.33-.54,1.2-1.43,1.95-3,1.98Z"/>
      <path class="cls-117" d="M157.82,270.81c-.37.19-.73.39-1.1.58-.72.26-1.41.13-2.19-.18,2.68-1.62,5.12-3.53,8.15-4.4.92-.31,1.84.03,2.76,0,.26.44.12.87-.27,1.04-2.42,1.06-4.64,2.62-7.36,2.94Z"/>
      <path class="cls-30" d="M214.14,265.78c1.11.22,1.91.97,2.93,1.56-1.86,1.62-3.81,1.14-5.73.85-.2-.15-.42-.15-.65-.16-.33-.02-.76.09-.83-.38-.06-.39.29-.6.57-.8,1.12-.79,2.4-.99,3.72-1.06Z"/>
      <path class="cls-74" d="M279.21,176.2c.27-.34.49-.75,1.02-.73.34,1.35-.49,2.44-.86,3.62-.88,2.81-1.63,5.66-2.94,8.32-.42.5-.81,1.05-1.43,1.33-.67-.55-.28-1.21-.09-1.76.97-2.86,1.98-5.7,2.94-8.57.28-.85.86-1.51,1.37-2.21Z"/>
      <path class="cls-131" d="M151.14,265.15c-4.3,1.48-8.45,3.32-12.61,5.16-.23-.11-.46-.23-.7-.34,3.45-1.94,7.13-3.36,10.83-4.73.38-.14,1.23.11.98-.83.66-.07,1.22.05,1.49.74Z"/>
      <path class="cls-131" d="M142.33,270.6c2.97-1.95,6.2-3.39,9.41-4.87.25-.11,1.41-.3.11-.73.85-.44,1.6-.47,2.14.47-3.48,1.76-7.14,3.19-10.65,5.41.79.19,1.34.32,1.89.46-1.05.08-2.1.18-2.91-.73Z"/>
      <path class="cls-30" d="M266.21,202.5c-.57.86-1.14,1.72-1.71,2.58-.62,1.15-1.22,2.32-2.05,3.34-.36.52-.91.79-1.44,1.07-.79,0-.84-.56-.63-1.06.53-1.25.78-2.64,1.68-3.73.45-.59,1.14-.86,1.72-1.27.59-.89,1.48-.99,2.43-.94Z"/>
      <path class="cls-114" d="M224.95,304.97c-1.44.62-2.95.27-4.43.34-.74.04-1.5-.09-2.2.28-.24-.01-.49-.02-.73-.03-3.36-.23-6.72-.02-10.08-.12-.48-.01-1.19.43-1.44-.45,1.79-.23,3.58-.43,5.35-.72,1.61-.26,3.06.54,4.63.54,2.96,0,5.93.09,8.89.15Z"/>
      <path class="cls-30" d="M214.45,258.06c-.33-.33-.65-.66-.98-.98.24-.77.97-.69,1.54-.87,1.55-.49,3.07-1.14,4.74-1.17.43-.04.92-.28,1.26.16.33.43-.34.64-.31,1.03-1.83,1.48-3.82,2.37-6.24,1.84Z"/>
      <path class="cls-81" d="M327.86,220.3c.7-3.81,1.43-7.62,2.7-11.29-.44,4.4-1.03,8.78-2.15,13.47-.25-1-.4-1.59-.55-2.18Z"/>
      <path class="cls-34" d="M275.97,179.31c.25-.46.5-.91.75-1.37,1.16.19.66,1,.5,1.55-.61,2.09-1.51,4.09-2.08,6.19-.68,1.66-.98,3.49-2.22,4.89-.38.53-.75,1.07-1.13,1.6-.71.14-.63-.36-.49-.71,1.64-4.02,2.74-8.25,4.66-12.16Z"/>
      <path class="cls-125" d="M199.02,265.36c-.71.03-1.54.76-2.07-.33,2.86-1.66,5.97-2.67,9.18-3.4.52.02,1.06,0,1.32.61-2.64,1.5-5.52,2.35-8.43,3.12Z"/>
      <path class="cls-22" d="M336.45,103.87c-.34.45-.71.48-1.04.48-.81-.01-1.81.08-2.18-.76-.42-.97.56-1.44,1.19-1.86,1.79-1.19,3.63-2.32,5.48-3.43.47-.29.98-.66,1.91-.35-1.86,1.14-3.55,2.18-5.24,3.21-.2.12-.42.21-.6.36-.66.53-1.95.78-1.79,1.68.15.83,1.46.25,2.26.68Z"/>
      <path class="cls-131" d="M187.52,262.99c3.03-1.19,6.07-2.37,9.1-3.56.63-.25,1.39-.31,1.76-1.02.46.06.52.51.77.78-3.08,1.21-6.17,2.42-9.24,3.65-.59.23-1.15.54-1.72.82-.22-.22-.44-.44-.65-.66Z"/>
      <path class="cls-37" d="M275.97,179.31c-1.31,3.7-2.63,7.39-3.92,11.1-.19.56-.74,1.1-.25,1.77-.25.67-.61.51-.99.13,1.32-3.73,2.64-7.47,3.94-11.2.18-.53.61-1.03.25-1.65.27-.4.62-.3.97-.15Z"/>
      <path class="cls-100" d="M206.76,266.81c-.95-.06-2.04,1.06-2.81-.37,2.45-1.2,4.79-2.72,7.7-2.46.12.24.24.49.36.73-1.42,1.52-3.31,1.88-5.25,2.1Z"/>
      <path class="cls-30" d="M178.68,268.92c-2.38.16-4.43,2.01-7.16,1.32,2.28-1.73,4.48-2.74,7.16-1.32Z"/>
      <path class="cls-28" d="M162.68,266.81c-2.51,1.41-5.01,2.81-7.67,4.3.62.47,1.2.2,1.71.28-1.03.39-2.05.77-2.84-.43,2.16-1.22,4.32-2.43,6.46-3.68.41-.24,1.3-.21.86-1.13.63-.08,1.06.27,1.48.66Z"/>
      <path class="cls-30" d="M168.99,267.52c.12-.03.23-.05.35-.08.49-.08,1.14-.37,1.37.19.27.63-.3,1.08-.85,1.27-1.6.57-2.98,1.75-4.8,1.69-.44.15-.89.31-1.33.46-.32.18-.68.12-1.02.12-.28,0-.63.05-.75-.28-.14-.4.15-.67.45-.85,2.06-1.2,4.09-2.49,6.59-2.53Z"/>
      <path class="cls-113" d="M145.84,271.33c3.51-1.67,7.03-3.34,10.54-5.01.41-.19.92-.28.97-.87.53-.07.6.38.8.69-2.88,1.37-5.77,2.73-8.65,4.11-.62.3-1.19.71-1.79,1.07-.63,0-1.25,0-1.88,0Z"/>
      <path class="cls-134" d="M316.21,273.76c-1.01,5.28-2.02,10.55-3.04,15.83-.25,0-.26-.24-.39-.36,1.03-5.27,2.05-10.54,3.08-15.81.23,0,.24.22.34.34Z"/>
      <path class="cls-59" d="M201.52,260.86c-2.41.92-4.83,1.82-7.24,2.75-.62.24-1.38.29-1.71,1.03-.98-.21-2.03-.14-2.95-.64,1.13.12,2.15-.2,3.2-.6,2.65-1.01,5.34-1.92,8.02-2.86.23.1.45.21.68.31Z"/>
      <path class="cls-117" d="M283.36,172.68c.12-.22.25-.45.37-.67.72-.38.87.03.68.58-1.1,3.15-1.84,6.42-3.2,9.48-.34.59-.67,1.17-1.01,1.76-.85-.02-.53-.64-.41-.98,1.19-3.39,2.1-6.88,3.56-10.17Z"/>
      <path class="cls-81" d="M283.36,172.68c-.74,3.26-2.1,6.33-3.03,9.54-.15.52-.61,1.04-.13,1.62-.2.5-.57.54-1.02.41.77-3.22,2-6.28,3-9.43.18-.56.71-1.14.14-1.77.22-.48.6-.51,1.04-.36Z"/>
      <path class="cls-89" d="M222.15,257.76c.62.08,1.34.63.66.95-1.73.82-3.51,1.71-5.52,1.76-.2,0-.4-.21-.6-.33-.49-.38-.14-.82.13-.94,1.7-.73,3.34-1.78,5.33-1.45Z"/>
      <path class="cls-46" d="M277.77,177.24c.12-.14.24-.28.36-.42.37-.02.59.21.48.52-1.41,3.95-2.53,8-4.26,11.83-.15.32-.3.63-.45.95-.82,0-.52-.59-.41-.93.38-1.12.73-2.25,1.19-3.33.97-2.9,1.84-5.82,3.09-8.62Z"/>
      <path class="cls-103" d="M224.46,259.72c.02.27-.14.43-.36.51-1.58.55-3.15,1.11-4.74,1.64-.41.13-.89.06-.99-.42-.09-.43.37-.51.68-.62,1.42-.5,2.84-.98,4.25-1.47.49-.17.91-.18,1.16.37Z"/>
      <path class="cls-97" d="M340.29,133.87c-2.21.38-3.9.87-5.47,1.74-.6-1.79-.47-2.01,1.17-1.95.4.01.92.2,1.16-.12,1.02-1.37,1.83-.44,3.14.33Z"/>
      <path class="cls-6" d="M281.21,182.07c.63-2.88,1.7-5.62,2.54-8.43.15-.51.82-1.11-.02-1.64.25-.62.9-.5,1.36-.73-.91,2.91-1.83,5.81-2.71,8.73-.17.56-.64,1.16-.06,1.77-.26.5-.65.53-1.11.29Z"/>
      <path class="cls-74" d="M263.78,203.44c-.34.42-.69.84-1.03,1.26-.95,1.87-1.9,3.73-3.2,5.38-.33.25-.67.5-1,.75-.66-.58-.25-1.19.01-1.74.61-1.31,1.24-2.62,1.98-3.87.17-.31.36-.6.77-.6.66-.75,1.43-1.25,2.48-1.18Z"/>
      <path class="cls-76" d="M332.72,208.38c-.57,3.9-1.07,7.8-2.05,11.62-.11-.25-.22-.5-.33-.75-.38-1.41.47-2.63.62-3.96-.02-2.46.9-4.68,1.76-6.91Z"/>
      <path class="cls-32" d="M206.13,261.63c-3.06,1.13-6.12,2.26-9.18,3.4-.13-.13-.27-.26-.4-.39,2.26-1.21,4.74-1.85,7.11-2.78.57-.22,1.3-.21,1.54-.97.31.25.63.49.94.74Z"/>
      <path class="cls-128" d="M276.43,187.41c1.27-3.98,2.53-7.96,3.8-11.93.06-.4.32-.44.64-.38-.66,3.04-1.91,5.9-2.8,8.87-.2.68-.76,1.35-.26,2.12-.26.65-.91.9-1.39,1.32Z"/>
      <path class="cls-20" d="M283.69,180.7c.87-2.77,1.75-5.54,2.59-8.32.21-.69.72-1.37.25-2.15.32-.3.66-.2.99-.05-.88,2.79-1.76,5.58-2.63,8.37-.22.71-.54,1.4-.46,2.17-.24-.01-.49-.02-.73-.03Z"/>
      <path class="cls-83" d="M312.58,311.5c.3-2.52,2.02-4.09,2.75-6.29.82,1.77-.39,4.46-2.75,6.29Z"/>
      <path class="cls-89" d="M166.56,267.2c.43,0,.87,0,1.3-.01.09.16.12.38-.04.45-2.47,1.01-4.7,2.57-7.28,3.34-.45.15-.91.3-1.36.44-.38.11-.83.33-1.04-.19-.14-.33.23-.49.48-.61,2.57-1.32,5.16-2.6,7.95-3.42Z"/>
      <path class="cls-1" d="M274.35,189.17c1.19-3.51,2.38-7.02,3.56-10.53.19-.58.62-1.15.21-1.81.36-.21.72-.41,1.08-.62-1.41,4.18-2.81,8.36-4.22,12.54-.21.14-.43.29-.64.43Z"/>
      <path class="cls-113" d="M160.54,270.97c2.26-1.6,4.98-2.32,7.32-3.79.37.11.75.22,1.12.34-2.15,1.12-4.5,1.83-6.57,3.2.39.52.9.19,1.3.34-1.07.51-2.13.4-3.18-.08Z"/>
      <path class="cls-69" d="M288.58,178.61c.79-2.91,1.61-5.81,2.37-8.73.15-.58.63-1.17.12-1.81.36-.09.71-.18,1.07-.27-.81,2.85-1.62,5.71-2.44,8.56-.18.61-.42,1.21-.33,1.87-.26.12-.53.25-.79.37Z"/>
      <path class="cls-44" d="M317.98,249.62c.11.35.21.71.32,1.06-.61,3.34-1.21,6.68-1.82,10.01-.2-.04-.4-.07-.6-.11.7-3.66,1.4-7.32,2.1-10.97Z"/>
      <path class="cls-100" d="M261.3,204.62c-.1.14-.2.28-.3.42-1.07,1.93-1.8,4.04-3.11,5.83-.51.78-1.3,1.11-2.15,1.35l.34-.52c1.3-2.35,2.6-4.69,4.17-6.87.32-.26.55-.97,1.06-.21Z"/>
      <path class="cls-100" d="M228.54,260.41c.56.02,2.23,1.78,2.17,2.28-.07.52-.53.54-.9.6-.62.1-2.47-1.52-2.41-2.13.07-.7.73-.58,1.14-.75Z"/>
      <path class="cls-88" d="M166.56,267.2c-2.45,1.16-4.91,2.32-7.36,3.5-.33.16-1.17.44-.03.72-.66.26-1.41.74-1.36-.6,1.91-1.22,4-2.07,6.06-2.99.57-.26,1.24-.36,1.57-1,.37.13.74.25,1.12.38Z"/>
      <path class="cls-107" d="M199.02,265.36c2.72-1.27,5.59-2.15,8.43-3.12.13.13.26.26.38.39-2.14.82-4.28,1.63-6.42,2.45-.58.22-1.25.3-1.54.98-.52.05-.63-.4-.85-.7Z"/>
      <path class="cls-70" d="M250.46,304.54c-.69-.22-1.38-.44-2.07-.66,1.61-.43,3.27-.45,4.92-.63.32.27.84-.08,1.12.35.59.11,1.19.23,1.78.34-1.94.23-3.81.8-5.75.61Z"/>
      <path class="cls-38" d="M326.42,173.74c-.13,0-.26-.01-.39-.02.86-1.88,2.08-3.53,3.46-5.6.1,1.85-.52,3.05-.82,4.31-.05.22-.22.5-.47.34-1.21-.79-1.27.48-1.77.96Z"/>
      <path class="cls-58" d="M296.63,262.21c-.61,3.4-1.23,6.8-1.84,10.2l-.54-.09c.67-3.6,1.35-7.2,2.02-10.8.35.11.14.51.36.69Z"/>
      <path class="cls-85" d="M206.08,305c2.68.63,5.4.11,8.09.29,1.14.08,2.31-.19,3.42.28-5.1.04-10.2.09-15.31.13-.11-.06-.15-.13-.13-.21.02-.09.05-.13.08-.13,1.28-.12,2.56-.24,3.84-.36Z"/>
      <path class="cls-18" d="M312.72,264.64c.13.37.25.74.38,1.11-.6,3.13-1.21,6.25-1.81,9.38-.31.13-.44.06-.32-.29.5-3.41.9-6.84,1.75-10.19Z"/>
      <path class="cls-70" d="M214.13,310.59c2.63.5,5.28.19,7.92.27.86.03,1.73.05,2.59.08.11.1.13.17.07.21-.04.02-.09.03-.15.03-4.52.04-9.04.08-13.55.11-.59-.04-1.32.61-1.74-.34,1.62-.12,3.24-.24,4.86-.37Z"/>
      <path class="cls-70" d="M312.46,293.44c-.5,2.97-1,5.94-1.5,8.91l-.64-.1c.24-3.11,1.3-6.1,1.78-9.18.33-.08.49,0,.36.36Z"/>
      <path class="cls-2" d="M284.71,306.27c3.61-.61,7.27-.65,10.9-1,.49-.1,1.09-.6,1.33.33-3.61.34-7.22.69-10.83,1.03-.41-.31-1.03.15-1.39-.36Z"/>
      <path class="cls-107" d="M211.65,263.98c-2.08.07-3.82,1.23-5.74,1.82-.66.2-1.31.43-1.97.65-.13-.13-.26-.26-.39-.39,1.54-.93,3.31-1.31,4.94-2.03.56-.25,1.27-.3,1.44-1.07.57.34,1.14.69,1.71,1.03Z"/>
      <path class="cls-107" d="M165.06,270.59c1.76-.9,3.52-1.8,5.3-2.7-.19-.59-.69-.3-1.01-.45.82-.2,1.83-.79,1.74.85-.32.97-1.32.95-2,1.4-.42.28-1.26.05-1.16.96-.97.62-1.92.39-2.87-.05Z"/>
      <path class="cls-38" d="M294.3,274.52c-.18,1.84-.35,3.68-.53,5.51-.8-.76-2.44-1.15-.87-2.79.64-.67.72-1.87,1.06-2.83.11.04.22.08.34.11Z"/>
      <path class="cls-76" d="M193.6,258.75c-2.46,1.13-4.91,2.26-7.38,3.37-.8.36-1.05.7-.09,1.16-.82.12-1.48-.23-2.12-.67,3.07-1.6,6.18-3.1,9.59-3.86Z"/>
      <path class="cls-103" d="M312.49,76.37c.96-.73,1.89-1.5,2.89-2.18.51-.35,1.31-.89,1.71-.27.45.7-.49,1.02-.98,1.36-1.02.71-2.26.9-3.62,1.09Z"/>
      <path class="cls-85" d="M290.41,301.51l9.15-.75c.01.21.03.43.04.64l-8.47.44c-.34.11-.73.32-.72-.33Z"/>
      <path class="cls-123" d="M220.75,256.75c.37.08.74.17,1.11.25,0,.12.04.29-.03.33-1.96,1.1-3.95,2.14-6.32,1.76v.02c-.36-.46-.12-.81.3-.93,1.64-.48,3.17-1.4,4.94-1.42Z"/>
      <path class="cls-9" d="M131.53,371.08c-1.07-1.17-2.15-2.34-3.22-3.51-.29-.32-.45-.85-1.06-.64-.49-.51-.84-1.09-.98-1.79,2.49,1.25,3.74,3.74,5.59,5.62-.06.16-.17.26-.33.32Z"/>
      <path class="cls-48" d="M285.88,286.12c-3.08.53-6.19.43-9.29.51,2.84-.64,5.72-.71,8.6-.88.19.21.6-.01.7.36Z"/>
      <path class="cls-91" d="M330.96,215.29c.12,1.37-.49,2.63-.62,3.96-.4,1.72-.8,3.44-1.19,5.16-.68.05-.43-.37-.36-.7.5-2.87,1.07-5.72,2.17-8.43Z"/>
      <path class="cls-90" d="M217.96,252.86c-1.64.87-3.49,1.12-5.2,1.78-.5.2-1.19.16-1.31.92-.4-.33-.8-.67-1.19-1,2.62-.49,5.1-1.45,7.64-2.18.02.16.04.32.05.48Z"/>
      <path class="cls-42" d="M267.29,216.59c-.51,1.9-2.02,3.22-2.88,4.92-.25.51-.89,1-.63,1.54.33.7,1.14.25,1.74.35-.9.57-1.82.44-2.75.08,1.2-2.49,2.71-4.79,4.52-6.89Z"/>
      <path class="cls-112" d="M249.79,307.01h-9.03c2.31-.32,4.61-.77,6.95-.62.7.21,1.39.41,2.09.62Z"/>
      <path class="cls-65" d="M321.21,229.79c-.37,2.58-.68,5.17-1.41,7.68-.11-.35-.22-.71-.33-1.06.47-2.45.94-4.89,1.4-7.34.67-.02.42.39.33.72Z"/>
      <path class="cls-14" d="M209.58,308.48c-2.67.67-5.42.09-8.11.47,2.57-.51,5.15-.89,7.78-.84.11.12.34.13.33.36Z"/>
      <path class="cls-105" d="M209.27,310.96c.58.11,1.16.22,1.74.34-2.97.25-5.94.5-8.91.74,2.34-.84,4.76-.97,7.17-1.08Z"/>
      <path class="cls-107" d="M219.75,255.04c-2.09.68-4.18,1.36-6.28,2.04-.37-.26-.74-.52-1.11-.79,1.9.08,3.54-.91,5.34-1.26.67-.13,1.34-.29,2.01-.43.01.15.02.29.04.44Z"/>
      <path class="cls-49" d="M277.77,177.24c-.96,2.9-1.92,5.8-2.88,8.71-.31.04-.5,0-.31-.38.63-1.94,1.27-3.87,1.88-5.82.18-.58.65-1.14.26-1.82.35-.23.7-.47,1.05-.7Z"/>
      <path class="cls-69" d="M260.24,204.83c-1.2,2.4-2.48,4.76-4.17,6.87.42-2.05,1.93-3.53,2.77-5.36.2-.43,1.17-.97.04-1.49.45-.37.9-.31,1.36-.02Z"/>
      <path class="cls-35" d="M214.14,265.78c-1.28.59-2.56,1.17-4.01,1.84.52.25.86.41,1.2.57-1.04.2-1.9-.36-2.82-.68-.12-1.08.86-1.08,1.45-1.36,1.07-.53,2.21-.92,3.46-.72.24.12.48.24.72.36Z"/>
      <path class="cls-17" d="M215.51,259.09c2.25-.3,4.44-.78,6.35-2.09.1.25.19.51.29.76-1.35.5-2.71.99-4.06,1.49-.52.2-1.18.21-1.4.89-.39-.35-.79-.7-1.18-1.06Z"/>
      <path class="cls-37" d="M220.75,256.75c-1.25.45-2.51.88-3.75,1.34-.57.21-1.31.21-1.48,1.01-.36-.35-.71-.7-1.07-1.05,2.08-.61,4.16-1.22,6.24-1.84.02.18.04.35.06.53Z"/>
      <path class="cls-127" d="M167.92,270.65c-.28,0-.56,0-1.13,0,1.39-1.23,3.04-1.44,4.28-2.36.56-.03,1.02-.6,1.9-.2-1.79.91-3.42,1.73-5.05,2.56Z"/>
      <path class="cls-117" d="M235.38,253.19c-1.26,1.17-3.14.71-4.47,1.69-.52.04-1.02.06-1.45-.52,1.12-.44,2.22-.8,3.38-.92.84-.09,1.69-.17,2.53-.26Z"/>
      <path class="cls-70" d="M257.03,302.79c1.72-.68,3.53-.7,5.34-.71.56.08,1.29-.62,1.65.36-1.95.24-3.9.47-5.85.71-.33-.28-.86.09-1.13-.36Z"/>
      <path class="cls-80" d="M293.13,269.23c-.5,2.2-1,4.41-1.5,6.61-.17-.04-.34-.07-.51-.11.54-2.41,1.08-4.83,1.62-7.24.38.12.15.55.38.74Z"/>
      <path class="cls-9" d="M300.24,246.57c-.05-1.54,1.11-2.9.7-4.5.12-.55.54-.85.96-1.16-.29,2.26-.68,4.5-1.34,6.69-.11-.34-.21-.69-.32-1.03Z"/>
      <path class="cls-85" d="M332.75,195.86c-.07-.27-.14-.53-.26-.98-.32,1.1-.59,2.03-.86,2.95-.05-1.78.1-3.53.71-5.2.99.96.83,2.08.42,3.23Z"/>
      <path class="cls-118" d="M213.42,265.43c-1.64.68-3.36,1.18-4.9,2.08-.36-.17-1.04.54-1.11-.41,1.36-1.04,2.91-1.63,4.59-1.9.49-.07,1.03-.38,1.41.22Z"/>
      <path class="cls-137" d="M343.62,167.16c-.13-.13-.26-.27-.38-.4.51-2.11,1.02-4.22,1.54-6.33.18.04.37.09.55.13-.57,2.2-1.14,4.4-1.71,6.6Z"/>
      <path class="cls-82" d="M209.58,308.48c-.11-.12-.22-.24-.33-.36,1.52.04,3-.56,4.53-.34,1.25.6,2.61,0,3.87.38-2.68.42-5.39.24-8.08.33Z"/>
      <path class="cls-25" d="M197.96,224.12c-.09-.93-.17-1.86-.26-2.79.99-.18,1.59,0,1.29,1.22-.14.55-.15,1.14-.23,1.71-.04.27-.04.67-.42.56-.18-.05-.25-.46-.38-.7Z"/>
      <path class="cls-66" d="M198.35,232.81c0-.35.02-.69.03-1.04.88-1.42,0-2.92.23-4.68.8,1.65.86,3.15.92,4.66.03.79-.63.87-1.17,1.06Z"/>
      <path class="cls-55" d="M324.96,211.15c-.48,2.09-.95,4.18-1.43,6.27-.67.02-.4-.39-.32-.71.35-2.13.72-4.26,1.38-6.33.12.26.25.52.37.77Z"/>
      <path class="cls-126" d="M322.61,231.89c-.23,2.12-.51,4.24-1.05,6.31-.12-.37-.24-.74-.36-1.11.35-1.87.69-3.74,1.04-5.61.33-.06.53,0,.37.4Z"/>
      <path class="cls-107" d="M212,265.21c-1.46.8-3.02,1.36-4.59,1.9-.22-.1-.43-.2-.65-.3,1.68-.88,3.44-1.56,5.25-2.1,0,.17,0,.33,0,.5Z"/>
      <path class="cls-3" d="M304.42,240.96c-.19-1.34,1.12-2.57.26-3.96.19-.51.53-.87,1.08-.99,0,2.05-.48,4.02-1.02,5.97-.11-.34-.22-.69-.33-1.03Z"/>
      <path class="cls-58" d="M308.96,236.75c.33-1.64.67-3.28,1-4.91.16-.3.33-.59.49-.89-.16,2.21-.48,4.39-1.16,6.51-.11-.24-.22-.47-.33-.71Z"/>
      <path class="cls-115" d="M209.91,314.4c-2.17.49-4.37.73-6.61.39,2.22-.23,4.44-.47,6.66-.7.24.14.22.24-.05.31Z"/>
      <path class="cls-53" d="M319.81,221.71l-1.04,5.28c-.12-.36-.24-.72-.36-1.09l1.06-5.22c.85.1.35.65.35,1.03Z"/>
      <path class="cls-99" d="M259.54,210.08c.89-1.9,1.94-3.7,3.2-5.38-.05,1.16-.87,1.97-1.33,2.94-.27.58-.97,1.09-.4,1.86-.37.49-.9.59-1.47.58Z"/>
      <path class="cls-129" d="M219.66,262.35c1.72-.59,3.43-1.17,5.15-1.76l.17.45c-1.71.62-3.41,1.24-5.12,1.86-.07-.18-.13-.37-.2-.55Z"/>
      <path class="cls-43" d="M316.91,267.82c.17-1.81.49-3.59,1.12-5.31.29,1.97-.5,3.78-.76,5.67-.33.09-.48,0-.36-.36Z"/>
      <path class="cls-134" d="M265.51,223.39c.99-2.22,2.21-4.29,3.89-6.06-.8,2.23-2.51,3.94-3.49,6.07-.13,0-.26,0-.4,0Z"/>
      <path class="cls-127" d="M203.04,232.8c1.49.39,2.56.62,3.52,1.4q-1.68.6-3.52-1.4Z"/>
      <path class="cls-88" d="M281.97,302.52c-1.57.62-3.18.23-4.79.21,1.54-.63,3.16-.62,4.78-.59.24.12.24.25,0,.37Z"/>
      <path class="cls-79" d="M209.91,314.4c.02-.1.03-.21.05-.31,1.93-.09,3.8-.79,5.77-.45-1.89.6-3.85.74-5.82.75Z"/>
      <path class="cls-1" d="M296.94,305.61c-.44-.11-.89-.22-1.33-.33,1.87-.6,3.81-.29,5.7-.68.02.17.04.34.06.51-1.48.17-2.96.33-4.43.5Z"/>
      <path class="cls-13" d="M246.71,305.24c-1.65.22-3.28.1-4.92-.14,2.23-.02,4.41-.69,6.66-.44-.58.19-1.16.39-1.73.58Z"/>
      <path class="cls-102" d="M329.15,229.67c.11.35.22.7.33,1.05-.34,1.64-.69,3.28-1.03,4.91-.33.08-.49,0-.36-.37.27-1.88.51-3.77,1.06-5.6Z"/>
      <path class="cls-9" d="M310.97,274.84c.11.1.22.19.32.29-.16,1.82-.58,3.57-1.19,5.29.18-1.88.21-3.78.86-5.59Z"/>
      <path class="cls-81" d="M257.89,210.87c.88-2.03,1.71-4.08,3.11-5.83-.37,2.12-1.97,3.71-2.46,5.78l-.65.05Z"/>
      <path class="cls-103" d="M216.12,268.91c.09-.17.1-.25.14-.27.75-.4,1.5-.96,2.37-.31.19.14.26.41,0,.57-.79.49-1.59.58-2.51,0Z"/>
      <path class="cls-71" d="M316.91,267.82c.12.12.24.24.36.36-.36,1.86-.71,3.72-1.07,5.58-.11-.11-.23-.23-.34-.34.23-1.89.42-3.78,1.04-5.6Z"/>
      <path class="cls-73" d="M316.24,261.77c-.29,1.49-.59,2.98-.88,4.47-.14-.03-.29-.05-.43-.08.18-1.52.36-3.05.9-4.51.14.04.27.08.41.12Z"/>
      <path class="cls-3" d="M253.66,131.78c-.12-.24-.24-.47-.36-.71.64-1.15,1.28-2.3,1.91-3.45.13.06.26.12.4.18-.65,1.33-1.3,2.65-1.95,3.98Z"/>
      <path class="cls-104" d="M274.58,185.57c.1.13.21.25.31.38-.29,1.4-1.41,2.61-.99,4.18-.17.48-.52.59-.98.45.34-1.74.95-3.39,1.65-5.01Z"/>
      <path class="cls-57" d="M202.23,305.36c.02.11.03.23.05.34-1.54.51-3.15.2-4.7.58-.02-.17-.04-.35-.06-.52,1.57-.13,3.14-.27,4.72-.4Z"/>
      <path class="cls-29" d="M313.82,225.53c-.25,1.65-.4,3.32-1.03,4.89-.08.26-.19.28-.33.04-.03-1.29.89-2.5.36-3.84.23-.46.53-.85.99-1.09Z"/>
      <path class="cls-57" d="M290.41,301.51c.24.11.48.22.72.33-1.48.55-3.03.24-4.55.37-.5.02-1.12.53-1.38-.35,1.74-.12,3.48-.23,5.22-.35Z"/>
      <path class="cls-95" d="M330.54,83.85c-.44.02-.74.53-1.24.38-.3-1.03-1.27-1.59-1.62-2.69.95.77,1.91,1.54,2.86,2.31Z"/>
      <path class="cls-102" d="M284.71,306.27c.46.12.93.24,1.39.36-1.62.12-3.24.24-4.86.36-.11-.11-.22-.21-.33-.32,1.23-.54,2.54-.26,3.81-.4Z"/>
      <path class="cls-120" d="M16.36,379.85c.39.29.74-.05,1.12-.08-.05.22-.03.49-.15.66-.37.53,1.02.64.28,1.18-.38.28-.74-.07-1.11-.19-.87-.27-.19-.84-.25-1.26-.01-.1.08-.21.12-.31Z"/>
      <path class="cls-26" d="M297.77,251.49c-.14,1.41-.28,2.82-.71,4.18-.13-.37-.26-.74-.38-1.1.26-1.27.51-2.54.77-3.8.67,0,.39.4.33.73Z"/>
      <path class="cls-132" d="M220.4,251.77c1.32-.7,2.8-.73,4.2-1.1-.5.95-1.78.57-2.36,1.38-.37-.07-.74-.34-1.1.01-.04.25-.19.4-.44.44-.1-.24-.2-.49-.3-.73Z"/>
      <path class="cls-111" d="M331.92,164.29c-.38.97.27,2.54-1.84,2.88.73-1.14.97-2.19,1.84-2.88Z"/>
      <path class="cls-86" d="M279.96,131.1c-.14-.13-.29-.26-.43-.39.65-1.14,1.3-2.29,1.94-3.43l.35.18c-.62,1.21-1.24,2.43-1.86,3.64Z"/>
      <path class="cls-122" d="M285.88,286.12c-.23-.12-.47-.24-.7-.36,1.62-.1,3.24-.2,4.86-.31,0,.22.02.45.03.67h-4.19Z"/>
      <path class="cls-128" d="M264.02,302.44l-1.65-.36c1.46-.52,2.95-.27,4.45-.12-.89.39-1.8.67-2.8.48Z"/>
      <path class="cls-50" d="M316.66,300.71c.39.86.44,1.73.06,2.9-.7-1.14-.49-2.01-.06-2.9Z"/>
      <path class="cls-58" d="M283.76,133.87c-.11-.1-.22-.2-.33-.3.63-1.07,1.27-2.14,1.9-3.21-.14,1.38-.71,2.51-1.57,3.5Z"/>
      <path class="cls-48" d="M110.51,304.54c-.09-.2-.18-.39-.27-.59.95-.88,1.91-1.77,2.86-2.65.18.19.37.38.55.57-1.05.89-2.1,1.78-3.15,2.68Z"/>
      <path class="cls-33" d="M310.59,183.85c-.21-.11-.42-.22-.64-.33,1.31-.54,2.62-1.09,3.92-1.63.06.13.11.26.17.38-1.15.52-2.31,1.05-3.46,1.57Z"/>
      <path class="cls-39" d="M296.63,262.21c-.12-.23-.24-.46-.36-.69.23-1.41.46-2.82.68-4.22.12.36.25.71.37,1.07-.23,1.28-.46,2.56-.69,3.84Z"/>
      <path class="cls-24" d="M338.5,147.17c-.07-1.28-.18-2.59,1.62-3.3-.64,1.3-1.13,2.3-1.62,3.3Z"/>
      <path class="cls-96" d="M313.19,236.42c.22-1.28.45-2.56.67-3.84.63-.05.49.32.37.68-.16,1.3-.25,2.62-.7,3.87-.11-.24-.22-.47-.33-.71Z"/>
      <path class="cls-96" d="M244.87,245.14c.21-.1.41-.2.62-.29,1.02.53,2.04,1.06,3.05,1.59-.05.12-.1.24-.15.36-1.17-.55-2.35-1.1-3.52-1.65Z"/>
      <path class="cls-40" d="M293.13,269.23c-.13-.25-.26-.49-.38-.74.15-1.19.28-2.38.7-3.51.12.25.24.5.36.74-.23,1.17-.45,2.34-.68,3.51Z"/>
      <path class="cls-134" d="M335.21,152.64c.2-.57.39-1.14.59-1.71.1,1.24.17,2.48-.29,3.84-.57-.79-.4-1.47-.31-2.14Z"/>
      <path class="cls-127" d="M226.34,257.48c-.3.47-.8.54-1.31.54-.32,0-.6-.23-.57-.52.08-.68.71-.65,1.19-.68.35-.02.64.21.69.66Z"/>
      <path class="cls-46" d="M227.55,258.81c-.16.56-.67.56-1.1.65-.38.08-.79-.06-.81-.45-.05-.78.68-.64,1.13-.75.39-.1.64.16.78.55Z"/>
      <path class="cls-64" d="M257.03,302.79c.38.12.75.24,1.13.36-1.26.07-2.45.61-3.74.45-.37-.12-.75-.23-1.12-.35,1.24-.15,2.48-.31,3.72-.46Z"/>
      <path class="cls-14" d="M295.59,248.96c.02,1.34-.22,2.65-.62,3.92-.12-.25-.24-.5-.36-.74-.21-.68.66-1.36,0-2.04.11-.57.56-.84.99-1.14Z"/>
      <path class="cls-10" d="M221.82,270.67c-.83-.27-1.66-.54-2.49-.82,1.2-.83,1.89,0,2.49.82Z"/>
      <path class="cls-112" d="M338.95,136.26l-2.86.94c.73-.93,1.68-1.26,2.86-.94Z"/>
      <path class="cls-52" d="M224.56,311.18c.03-.08.06-.16.09-.24,1.37,0,2.74,0,4.11,0,0,.07.02.14.03.2-.94.13-1.88.26-2.82.38-.47-.12-.93-.23-1.4-.35Z"/>
      <path class="cls-136" d="M345.74,150.92c.63-.17,1.1-.3,1.63-.44.11.59.25,1.27-.36,1.48-.49.17-.83-.43-1.27-1.04Z"/>
      <path class="cls-62" d="M312.46,293.44c-.12-.12-.24-.24-.36-.36.23-1.28.46-2.57.69-3.85.13.12.26.24.39.36-.16,1.3-.24,2.61-.71,3.85Z"/>
      <path class="cls-51" d="M312.74,93.95c-.24-.13-.47-.27-.71-.4,1.12-.47,2.31-.45,3.51-.52-.87.54-1.79.85-2.8.92Z"/>
      <path class="cls-23" d="M285.19,301.86c.46.12.92.23,1.38.35-1.51.51-3.06.25-4.6.31,0-.12,0-.25,0-.37,1.07-.1,2.15-.19,3.22-.29Z"/>
      <path class="cls-84" d="M223.32,255.44c-.5.06-.79-.2-.9-.61-.12-.47.27-.56.61-.59.44-.04.8.19.91.6.13.5-.35.48-.62.6Z"/>
      <path class="cls-7" d="M328.09,235.26l.36.37c-.19.99-.26,2.02-.88,2.92-.07-1.13.08-2.22.51-3.29Z"/>
      <path class="cls-106" d="M294.95,350.46c-.11-.23-.21-.45-.32-.68.14-1.02.3-2.03.93-3.24.01,1.55-.13,2.76-.61,3.92Z"/>
      <path class="cls-46" d="M220.7,252.5c.15-.15.29-.29.44-.44.55.4,1.2.72,1.38,1.46.02.07-.22.28-.35.29-.87.02-1.03-.81-1.48-1.3Z"/>
      <path class="cls-22" d="M328.79,223.72c.12.23.24.47.36.7-.12.9-.25,1.81-.89,2.84-.02-1.38.09-2.48.53-3.53Z"/>
      <path class="cls-9" d="M320.78,202.76c-.11.8-.32,1.55-.97,2.42.08-1.35.18-2.44.59-3.49.13.36.25.72.38,1.07Z"/>
      <path class="cls-50" d="M246.32,227.94c-.55-.71-1.11-1.42-1.66-2.14.97.16,1.53.74,2.01,1.43-.12.24-.23.47-.35.71Z"/>
      <path class="cls-26" d="M262.45,208.42c.48-1.24,1.12-2.38,2.05-3.34-.06,1.24-1.18,2.04-1.35,3.23-.23.04-.46.07-.7.11Z"/>
      <path class="cls-75" d="M298.43,33.02c7.86,3.46,10.94,14.64,5.89,21.38-1.42-.26-1.17-1.32-.73-2.06,1.12-1.89,1.18-4.02,1.6-6.07.05-.23-.13-.43-.39-.44-.55.82-.11,1.72-.26,2.57-.56,4.06-2.97,6.14-7.04,6.23-3.31.07-5.98-1.35-8.25-3.54-1.22-1.18-1.86-2.75-1.87-4.56-.01-3.61.86-6.79,4.02-8.96,1.06-.73,1.34-2.21,2.57-2.78.44-.5.95-.85,1.67-.69.34.07.78.2.88-.26.26-1.25,1.18-.79,1.92-.8Z"/>
      <path class="cls-74" d="M297.29,5.49c2.19.53,4.14,1.42,5.27,3.53.37,7.23.03,14.44-.95,21.61-.07.52-.18,1.03-.25,1.55-.11.83-.39,1.16-1.23.6-1.28-.84-2.71-1.39-4.25-1.43-1.17-.03-1.29-.66-1.26-1.59.13-3.78.21-7.56.33-11.33.11-3.38.13-6.75-.23-10.12-.21-2.01.29-2.51,2.56-2.82Z"/>
      <path class="cls-74" d="M304.66,45.03c1.47-.19,1.07.89,1,1.6-.19,1.96-.62,3.87-1.2,5.75-.21.66-.41,1.33-.13,2.02-3.75,4.67-10.33,5.31-15.13,1.5-3.31-2.63-4.82-6.21-5.44-10.24-.3-1.94.58-3.64,1.35-5.35,1.24-2.72,3.12-4.89,5.61-6.54.59-.12,1.17-.64,1.78-.05,1.73-2.32,3.82-1.64,5.93-.7,0,.5-1.59-.19-.71.94.4.51.47.9-.12,1.29-.51.34-.99.63-1.57.14-.39-.33-.72-.82-1.35-.54-.85,1.4-2.19,2.29-3.47,3.24-3.17,2.35-3.97,5.77-3.44,9.3.56,3.78,3.53,5.65,7.01,6.67,1.41.42,2.81.45,4.27.06,3.03-.82,4.64-2.84,5.23-5.81.29-1.07-.24-2.24.37-3.28Z"/>
      <path class="cls-116" d="M312.03,46.44c.22.26.44.53.66.79.6.71,1.77,1.29,1.45,2.29-.37,1.14-1.57,1.44-2.76,1.38-1.19,1.08-2.28,1.19-3.53.36-.54-1.01-.51-1.5.91-1.53,3.18-.07,3.17-.15,3.3-3.03-.13-.04-.18-.09-.15-.16.04-.07.08-.1.12-.1Z"/>
      <path class="cls-31" d="M307.85,51.26c1.18-.12,2.35-.24,3.53-.36.51,2.09-1.22,1.46-2.17,1.78-.6.53-1.14,1.27-2.1.64-.34-.29-.53-.64,0-.88.54-.25.6-.73.75-1.18Z"/>
      <path class="cls-68" d="M289.64,31.61c-.73-1.87-1.06-3.88-2.11-5.64-.19-.31.02-.54.38-.57.83,1.35,1.42,2.79,1.92,4.28.23.67.45,1.34-.2,1.92Z"/>
      <path class="cls-101" d="M309.59,53.42c-.66,1.05-1.43,2.01-2.42,2.79-.24.04-.48.04-.71-.06-.55-.26-1.11-.5-.66-1.29.49-.84,2.63-1.66,3.78-1.44Z"/>
      <path class="cls-51" d="M309.59,53.42c-1.34.24-2.41,1.03-3.51,1.56-.08.78,1.38-.45.79.82-.75.97-1.11.89-1.84-.41l.79-.97c1.03-.65,2.01-1.42,3.32-1.41.15.14.3.28.45.42Z"/>
      <path class="cls-72" d="M315.57,48.4c-.23-.91.62-1.32.6-2.02,0-.31.25-.55.53-.58.41-.05.54.34.71.62.18.3.39.61-.11.82-.62.26-.88,1.05-1.74,1.17Z"/>
      <path class="cls-91" d="M314.46,46.81c-1.35-.66-1.3-2.23-2.32-3.07-.19-.16-.04-.44.24-.49.3-.06.6,0,.73.32.46,1.08.91,2.16,1.36,3.25Z"/>
      <path class="cls-6" d="M292.5,33.72c-.59.27-1.16,1.04-1.78.05.32-.58.41-1.44,1.41-1.2.71.17.38.72.37,1.14Z"/>
      <path class="cls-34" d="M305.02,55.39c.58.29,1.04,1.12,1.84.41.1.13.21.27.31.4-.61,1.45-1.84.7-2.61.47-.55-.16.21-.86.46-1.29Z"/>
      <path class="cls-94" d="M312.03,46.44c0,.09.02.17.03.26-1.44-.05-2.02-.99-2.21-2.34.73.69,1.45,1.39,2.18,2.08Z"/>
      <path class="cls-47" d="M309.14,53.01c-1.11.47-2.22.94-3.32,1.41.13-.72.7-.93,1.3-1.1.7-.21,1.4-.43,2.1-.64.01.12-.01.23-.08.33Z"/>
      <path class="cls-5" d="M193.06,223.57c.4,3.1.76,6.2,1.21,9.29.12.85.05,1.46-.81,1.8-1.24.28-1.2-.65-1.19-1.36.05-3.17-.59-6.27-.77-9.42-.04-.69-.37-1.47.64-1.64,1.07-.17.66.85.92,1.33Z"/>
      <path class="cls-138" d="M191.61,235.28c-.43.03-.86.06-1.3.1-.28-2.56-.38-5.13-.54-7.7-.2-1.55-.47-3.1-.39-4.67,1.4-.74,1.94-.58,2.06.79.3,3.23.81,6.43,1.12,9.66.07.76.28,1.7-.96,1.82Z"/>
      <path class="cls-28" d="M191.61,235.28c.88-.25.96-.86.77-1.63-.84-3.33-1.22-6.73-1.5-10.15-.11-1.31-.67-.91-1.3-.42-.11.34-.3.59-.68.64-.48.01-.72-.36-1.02-.63,1.22-.82,2.67-.73,4.02-.97,1.09-.19,1.22.61,1.16,1.45-.46-.27-.02-1.44-.95-1.1-.64.23-.11.92-.07,1.39.24,3.17.81,6.32.72,9.52-.02.54-.2,1.23.71,1.28-.53.46-1.14.69-1.85.62Z"/>
      <path class="cls-133" d="M187.87,223.09c.42-.14.79-.14,1,.33,1.03,1.2.6,2.72.85,4.08.24,1.31.05,2.69.27,3.77.18-1.03-.88-2.46.37-3.65.55,2.59.51,5.17-.04,7.76-.23.31-.55.4-.91.38-1.06.06-.61-.77-.64-1.21-.12-1.72.13-3.45-.14-5.16-.25-2.1-.5-4.19-.75-6.29Z"/>
      <path class="cls-66" d="M188.62,229.38c.53,1.33.23,2.72.3,4.08.04.79-.09,1.62.48,2.3-.16.06-.32.12-.49.17-2.25.62-2.29.59-2-1.89.75.25.19,1.78,1.18,1.49.91-.27.55-1.4.58-2.15.05-1.33-.03-2.66-.05-3.99Z"/>
      <path class="cls-138" d="M253.47,58.41c1.47-.73,2.37-.4,3.6.14-1.27.16-2.19.17-3.6-.14Z"/>
      <path class="cls-19" d="M323.2,216.71c.11.24.22.47.32.71-.77,4.12-1.55,8.25-2.32,12.37-.11-.24-.22-.48-.33-.72.49-4.17,1.18-8.31,2.33-12.36Z"/>
      <path class="cls-93" d="M319.81,221.71c-.12-.34-.23-.69-.35-1.03.46-2.22.92-4.44,1.37-6.65.32-.13.45-.06.34.3-.46,2.46-.91,4.93-1.37,7.39Z"/>
      <path class="cls-87" d="M314.22,233.25c-.12-.23-.24-.45-.37-.68.35-1.76.71-3.51,1.07-5.27,0-.04.08-.06.12-.09.08.14.15.28.23.41-.35,1.88-.7,3.75-1.04,5.63Z"/>
      <path class="cls-60" d="M321.18,214.33c-.11-.1-.23-.2-.34-.3.13-1.48.55-2.89,1.14-4.26-.12,1.55-.28,3.09-.8,4.56Z"/>
      <path class="cls-50" d="M131.53,371.08c.11-.11.22-.21.33-.32,1.6,1.76,3.21,3.51,4.8,5.28.49.55,1.14,1.02,1.2,1.86-2.27-2.13-4.33-4.44-6.32-6.82Z"/>
      <path class="cls-8" d="M323.99,221.72c.32-1.75.63-3.5.95-5.25.12,1.91-.08,3.76-.62,5.56-.16-.06-.27-.16-.34-.31Z"/>
      <path class="cls-92" d="M323.99,221.72c.11.1.22.21.34.31-.31,1.88-.36,3.81-1.01,5.63-.26.03-.24-.21-.33-.34.34-1.87.67-3.74,1.01-5.6Z"/>
      <path class="cls-23" d="M322.98,227.32c.11.11.22.23.33.34-.07,1.44-.27,2.85-.7,4.22-.12-.13-.25-.27-.37-.4.25-1.39.49-2.77.74-4.16Z"/>
      <path class="cls-77" d="M311.04,240.26c-1.34,8.45-2.63,16.92-4.04,25.36-1.23,7.35-2.4,14.72-4.02,22-.14.62-.27,1.26-.52,1.84-.37.87-.81.63-1.19-.03,2.29-15.19,5.13-30.28,8.31-45.31.35-1.65.75-3.29,1.12-4.94.82.13.41.66.33,1.07Z"/>
      <path class="cls-119" d="M312.47,230.46c.11,0,.22-.02.33-.04-.18,2.03-.5,4.04-1.03,6.02-.35-.14-.14-.55-.37-.75.36-1.74.71-3.49,1.07-5.23Z"/>
      <path class="cls-55" d="M311.4,235.69c.12.25.24.5.37.75-.18,1.29-.26,2.59-.72,3.83-.11-.36-.22-.71-.33-1.07.23-1.17.46-2.34.69-3.5Z"/>
      <path class="cls-16" d="M297.77,251.49c-.11-.24-.22-.48-.33-.73.21-1.16.43-2.32.64-3.48.68,1.46-.05,2.81-.32,4.2Z"/>
      <path class="cls-32" d="M195.71,222.42c.65,3.34,1.09,6.7,1.06,10.12-.17.02-.33.04-.5.06-.44-3.36-.87-6.72-1.31-10.08.25-.03.5-.07.75-.1Z"/>
      <path class="cls-37" d="M304.41,48.49c-.35,2.81-1.91,4.68-4.53,5.64-3.28,1.2-6.27.47-9.02-1.55-5.28-3.88-3.82-9.32-1.44-13.33.49-.84,1.45-1.14,2.11-1.79.88-.86,2.24-1.24,2.58-2.66.06-.24.38-.15.56.05-.3,1.12-.93,1.9-1.99,2.49-3.33,1.86-4.58,4.95-4.76,8.58-.11,2.1.68,3.82,2.29,5.23,1.67,1.45,3.53,2.43,5.72,2.8,4.12.68,7.04-1.37,8.13-5.75.31-.13.44-.04.34.3Z"/>
      <path class="cls-109" d="M302.64,40.57q-3.86-3.32-2.8-5.24c-.32,2.64,2.29,3.2,2.8,5.24Z"/>
      <path class="cls-23" d="M304.41,48.49c-.11-.1-.23-.2-.34-.3-.1-1.47.09-2.95-.41-4.61.91.34.64,1.09.99,1.45,0,1.16.26,2.33-.24,3.46Z"/>
      <path class="cls-4" d="M297.48,38.64c-.07.47-.39.67-.83.65-.47-.03-.71-.34-.65-.8.05-.4.36-.55.73-.55.46,0,.74.21.75.71Z"/>
      <path class="cls-135" d="M190.35,227.62c-.08,2.08.26,4.16-.21,6.25-.79-3.43-1.18-6.92-1.27-10.44.23-.11.47-.23.7-.34.78,1.42.44,3.03.78,4.53Z"/>
    </g>
  </g>
</svg>